<svg id="Layer_1" data-name="Layer 1" xmlns="http://www.w3.org/2000/svg" viewBox="0 0 283.27 82.84"><defs><style>.cls-1{fill:#2d2e82;}</style></defs><path class="cls-1" d="M842.17,331.46a19.7,19.7,0,0,0-4.31.44,4.27,4.27,0,0,0-3.32,4.19v.67a4.28,4.28,0,0,0,5.22,4.18,10.29,10.29,0,0,1,4.42,0A10.22,10.22,0,0,1,842,361.13a10,10,0,0,1-2.13-.23,4.31,4.31,0,0,0-5.28,4.17v.67a4.27,4.27,0,0,0,3.3,4.19,19.9,19.9,0,0,0,4.11.44,19.46,19.46,0,0,0,.22-38.91Z" transform="translate(-602.01 -301.65)"/><circle class="cls-1" cx="237.75" cy="20.82" r="5.22"/><path class="cls-1" d="M820.51,331.56a5.31,5.31,0,0,0-4.16,5.27v34.41a2.73,2.73,0,0,1-2.73,2.73h-3.88a5.18,5.18,0,0,0,0,10.36h4.43a12.54,12.54,0,0,0,12.54-12.54V336.64A5.18,5.18,0,0,0,820.51,331.56Z" transform="translate(-602.01 -301.65)"/><path class="cls-1" d="M874.41,317.5a5.18,5.18,0,0,0-5.18,5.18v42.51a5.18,5.18,0,0,0,10.36,0V322.68A5.18,5.18,0,0,0,874.41,317.5Z" transform="translate(-602.01 -301.65)"/><path class="cls-1" d="M880.11,304.24v1.29a1.39,1.39,0,0,1-1.4,1.39H867a5.21,5.21,0,0,0-5.21,5.21v2.54a2.58,2.58,0,0,0,2.59,2.58h0a2.58,2.58,0,0,0,2.58-2.58v-1.14a1.4,1.4,0,0,1,1.4-1.4h11.68a5.2,5.2,0,0,0,5.2-5.21h0v-2.68a2.59,2.59,0,0,0-2.58-2.59h0A2.59,2.59,0,0,0,880.11,304.24Z" transform="translate(-602.01 -301.65)"/><rect class="cls-1" y="15.85" width="10.36" height="52.87" rx="5.18"/><path class="cls-1" d="M665.31,331.67a5.3,5.3,0,0,0-4.15,5.27v17.42a5.56,5.56,0,0,1-5.57,5.56,8.52,8.52,0,0,1-8.53-8.53l0,0c0-.39,0-.78,0-1.18a19.43,19.43,0,0,0-23.54-18.35,4.27,4.27,0,0,0-3.32,4.19v.67a4.29,4.29,0,0,0,5.23,4.18,10.29,10.29,0,0,1,4.42,0,10.22,10.22,0,0,1-2.23,20.19,10,10,0,0,1-2.14-.23,4.31,4.31,0,0,0-5.28,4.17v.67a4.27,4.27,0,0,0,3.3,4.19,20,20,0,0,0,4.12.44,19.44,19.44,0,0,0,16.29-8.83,10.35,10.35,0,0,0,10.22,8.74h3.77a13.62,13.62,0,0,0,13.63-13.62V336.75A5.19,5.19,0,0,0,665.31,331.67Z" transform="translate(-602.01 -301.65)"/><circle class="cls-1" cx="64.3" cy="78.29" r="4.55"/><circle class="cls-1" cx="55.19" cy="78.26" r="4.55"/><path class="cls-1" d="M724.47,331.67a5.31,5.31,0,0,0-4.16,5.27v17.42a5.56,5.56,0,0,1-5.56,5.56,8.52,8.52,0,0,1-8.54-8.53l0,0c0-.39,0-.78,0-1.18a19.43,19.43,0,0,0-23.54-18.35,4.27,4.27,0,0,0-3.32,4.19v.67a4.29,4.29,0,0,0,5.23,4.18,10.29,10.29,0,0,1,4.42,0,10.22,10.22,0,0,1-4.37,20,4.31,4.31,0,0,0-5.28,4.17v.67a4.27,4.27,0,0,0,3.31,4.19,19.83,19.83,0,0,0,4.11.44,19.47,19.47,0,0,0,16.3-8.83,10.33,10.33,0,0,0,10.21,8.74h3.78a13.62,13.62,0,0,0,13.62-13.62V336.75A5.19,5.19,0,0,0,724.47,331.67Z" transform="translate(-602.01 -301.65)"/><circle class="cls-1" cx="122.24" cy="20.82" r="5.22"/><path class="cls-1" d="M764.51,360H748.85V322.68a5.18,5.18,0,0,0-10.36,0v42.51a5.18,5.18,0,0,0,5.18,5.18h23.14" transform="translate(-602.01 -301.65)"/><path class="cls-1" d="M784.12,317.64h-19a8.81,8.81,0,0,0-6.76,14.46l16,19.12a5.35,5.35,0,0,1-4.1,8.79h-21v10.36h25.08a14.57,14.57,0,0,0,11.12-24l-16.2-19.19h14.87a4.78,4.78,0,0,0,4.79-4.79h0A4.78,4.78,0,0,0,784.12,317.64Z" transform="translate(-602.01 -301.65)"/></svg>