<svg width="109" height="73" viewBox="0 0 109 73" fill="none" xmlns="http://www.w3.org/2000/svg">
<g filter="url(#filter0_d)">
<path d="M53.1705 39.2391L36.9658 7.25199C36.3208 5.97462 35.3274 4.90006 34.0978 4.14898C32.8682 3.39788 31.4508 3 30.0046 3C28.5585 3 27.1409 3.39788 25.9113 4.14898C24.6816 4.90006 23.6885 5.97462 23.0434 7.25199L6.93324 39.3593C6.31905 40.5789 6.22016 41.9895 6.65809 43.2812C7.09606 44.5729 8.03521 45.6404 9.26953 46.2498C9.98907 46.6107 10.785 46.7979 11.5921 46.7964C12.5618 46.7929 13.5114 46.5244 14.3361 46.0212C15.1608 45.5176 15.8282 44.7987 16.2644 43.9441L30.0114 16.5283L43.7851 43.8508C44.4333 45.0173 45.5146 45.8909 46.8015 46.2875C48.0884 46.6844 49.4808 46.5734 50.6867 45.9785C51.8925 45.3832 52.818 44.3502 53.2686 43.0962C53.7188 41.8421 53.6595 40.4644 53.1029 39.2524L53.1705 39.2391Z" fill="#95C11F"/>
</g>
<g filter="url(#filter1_d)">
<path d="M30.739 27.1909H29.402C27.836 27.1909 26.5664 28.4441 26.5664 29.9897V50.3285C26.5664 51.8742 27.836 53.1273 29.402 53.1273H30.739C32.3053 53.1273 33.575 51.8742 33.575 50.3285V29.9897C33.575 28.4441 32.3053 27.1909 30.739 27.1909Z" fill="#95C11F"/>
</g>
<g filter="url(#filter2_d)">
<path d="M79.8422 53.1269C92.5764 53.1269 102.92 42.3844 102.92 29.1363C102.947 23.8637 101.251 18.7229 98.0856 14.4756C97.5036 13.7063 96.69 13.1381 95.7617 12.852C94.833 12.566 93.8364 12.5766 92.9144 12.8824C91.9922 13.1883 91.1917 13.7737 90.6264 14.5552C90.0614 15.3367 89.7609 16.2744 89.7673 17.2345C89.7804 18.2272 90.106 19.1914 90.6991 19.9934C92.6372 22.6518 93.6726 25.8479 93.6566 29.1231C93.6566 37.2799 87.4584 43.9171 79.8422 43.9171C72.226 43.9171 66.0409 37.2531 66.0409 29.1231C66.0224 25.9113 67.0129 22.7728 68.8769 20.14C69.4451 19.3624 69.7608 18.4329 69.7816 17.4744C69.7893 16.512 69.4881 15.5718 68.9215 14.7887C68.3546 14.0056 67.5509 13.4197 66.6261 13.1149C65.7013 12.8101 64.7021 12.8021 63.7725 13.092C62.8425 13.3819 62.0295 13.9549 61.4498 14.7288C58.385 18.9374 56.7452 23.9936 56.7638 29.1765C56.7638 42.3844 67.1215 53.1269 79.8422 53.1269Z" fill="#113E81"/>
</g>
<g filter="url(#filter3_d)">
<path d="M79.0977 36.7069H80.4343C82.0007 36.7069 83.2704 35.4538 83.2704 33.9078V9.06452C83.2704 7.51873 82.0007 6.26562 80.4343 6.26562H79.0977C77.5314 6.26562 76.2617 7.51873 76.2617 9.06452V33.9078C76.2617 35.4538 77.5314 36.7069 79.0977 36.7069Z" fill="#113E81"/>
</g>
<g filter="url(#filter4_d)">
<path d="M90.0365 61.1088C89.7305 60.7979 89.3626 60.5528 88.9563 60.389C88.0433 60.0689 87.0467 60.0689 86.134 60.389C85.7254 60.543 85.3566 60.7843 85.0535 61.0956C84.7503 61.4014 84.5196 61.7702 84.3783 62.175C84.2116 62.6276 84.1293 63.1062 84.135 63.5878C84.1395 64.0411 84.2171 64.4911 84.3648 64.9207C84.5218 65.3277 84.7609 65.6993 85.0669 66.0134C85.371 66.317 85.7338 66.5574 86.134 66.72C87.0467 67.0401 88.0433 67.0401 88.9563 66.72C89.3645 66.5656 89.7334 66.3246 90.0365 66.0134C90.3397 65.6997 90.5739 65.3277 90.7252 64.9207C91.0495 64.0151 91.0495 63.0271 90.7252 62.1216C90.5749 61.7376 90.3397 61.3913 90.0365 61.1088ZM88.7806 65.1873C88.6361 65.3758 88.4477 65.5273 88.2317 65.6294C88.0154 65.7316 87.7776 65.7809 87.5383 65.7737C87.2204 65.7778 86.9092 65.6845 86.6471 65.507C86.3798 65.3179 86.1773 65.0529 86.0664 64.7473C85.9245 64.377 85.8559 63.9835 85.8636 63.5878C85.8559 63.1878 85.9248 62.7899 86.0664 62.4148C86.1824 62.1083 86.3894 61.8436 86.6605 61.6551C86.9928 61.4444 87.3915 61.3606 87.7818 61.4194C88.1721 61.4783 88.5275 61.6759 88.7806 61.9751C89.08 62.4587 89.2386 63.0144 89.2386 63.5812C89.2386 64.148 89.08 64.7037 88.7806 65.1873Z" fill="#95C11F"/>
<path d="M104 58.5506C104 58.0427 103.583 57.6309 103.068 57.6309C102.554 57.6309 102.137 58.0427 102.137 58.5506V66.1208C102.137 66.6287 102.554 67.0405 103.068 67.0405C103.583 67.0405 104 66.6287 104 66.1208V58.5506Z" fill="#95C11F"/>
<path d="M100.122 60.1626C99.9044 60.2091 99.7096 60.3289 99.5715 60.5016C99.4337 60.6743 99.3609 60.8891 99.3657 61.1089V64.2012C99.3657 64.4627 99.2606 64.7135 99.0732 64.8986C98.8857 65.0833 98.6316 65.1873 98.3666 65.1873C98.0769 65.1737 97.7971 65.0804 97.5584 64.9178C97.3196 64.7553 97.1319 64.5301 97.0162 64.2676C96.9345 64.0781 96.8931 63.8738 96.8947 63.6679V63.4282C96.8787 62.9215 96.7499 62.4249 96.5175 61.9733C96.2855 61.5213 95.9552 61.1256 95.5504 60.8141C95.1457 60.5023 94.6765 60.2824 94.176 60.1698C93.6754 60.0572 93.156 60.0547 92.6545 60.1626C92.483 60.2015 92.3295 60.2964 92.2193 60.4317C92.1091 60.5671 92.0485 60.7354 92.0469 60.909V61.0289C92.0459 61.144 92.0713 61.2578 92.1212 61.3616C92.1712 61.4656 92.2446 61.557 92.3356 61.6288C92.4266 61.7006 92.533 61.7512 92.6468 61.7765C92.7606 61.8022 92.8785 61.8015 92.9919 61.7753C93.254 61.7155 93.5268 61.7155 93.7889 61.7753C94.2343 61.8692 94.6288 62.1232 94.8954 62.4879C95.1617 62.8525 95.2816 63.302 95.2309 63.7489C95.1803 64.1958 94.9633 64.6085 94.6221 64.9061C94.2808 65.2041 93.8392 65.366 93.3838 65.3606C93.2579 65.3736 93.1313 65.3736 93.0057 65.3606C92.8916 65.3372 92.774 65.3388 92.6606 65.3651C92.5471 65.3913 92.4414 65.4419 92.3497 65.5131C92.2584 65.5843 92.1841 65.6741 92.1315 65.7769C92.0793 65.8793 92.0504 65.9923 92.0469 66.1071V66.2269C92.0507 66.3999 92.1123 66.5669 92.2222 66.702C92.3321 66.8367 92.484 66.9322 92.6545 66.9734C92.8939 67.0268 93.1384 67.0537 93.3838 67.0534C93.9683 67.0537 94.5436 66.9101 95.0576 66.6356C95.5719 66.3607 96.0083 65.9638 96.3275 65.4805C96.3954 65.9126 96.6182 66.3063 96.9553 66.59C97.2921 66.8737 97.7212 67.0284 98.164 67.0265H98.8527C99.501 67.0265 100.123 66.7725 100.581 66.3199C101.039 65.8676 101.297 65.2541 101.297 64.6142V61.069C101.3 60.9261 101.269 60.7847 101.207 60.6556C101.145 60.5266 101.053 60.4137 100.939 60.3258C100.825 60.2378 100.692 60.1774 100.55 60.149C100.408 60.1208 100.262 60.1252 100.122 60.1626Z" fill="#95C11F"/>
<path d="M100.302 69.6001C100.757 69.6001 101.126 69.2361 101.126 68.7873C101.126 68.3382 100.757 67.9741 100.302 67.9741C99.8474 67.9741 99.4785 68.3382 99.4785 68.7873C99.4785 69.2361 99.8474 69.6001 100.302 69.6001Z" fill="#95C11F"/>
<path d="M98.6637 69.586C99.1185 69.586 99.4876 69.2219 99.4876 68.7731C99.4876 68.324 99.1185 67.96 98.6637 67.96C98.2087 67.96 97.8398 68.324 97.8398 68.7731C97.8398 69.2219 98.2087 69.586 98.6637 69.586Z" fill="#95C11F"/>
<path d="M66.0819 57.6309C65.8349 57.6309 65.5981 57.7276 65.4234 57.9003C65.2484 58.0727 65.1504 58.3064 65.1504 58.5506V66.0942C65.1504 66.3381 65.2484 66.5718 65.4234 66.7445C65.5981 66.9169 65.8349 67.0136 66.0819 67.0136C66.329 67.0136 66.5662 66.9169 66.7408 66.7445C66.9158 66.5718 67.0138 66.3381 67.0138 66.0942V58.537C67.0103 58.2957 66.9106 58.0651 66.7363 57.8956C66.562 57.7257 66.3268 57.6309 66.0819 57.6309Z" fill="#95C11F"/>
<path d="M63.056 60.1622C62.8406 60.2115 62.6493 60.3324 62.5138 60.5047C62.3785 60.6774 62.3077 60.8906 62.3135 61.1085V67.2263C62.3135 67.3535 62.2622 67.4756 62.1709 67.5654C62.0799 67.6555 61.9562 67.7061 61.8273 67.7061H61.1249C60.8778 67.7061 60.641 67.8029 60.4661 67.9753C60.2914 68.1477 60.1934 68.3817 60.1934 68.6256C60.1934 68.8694 60.2914 69.1035 60.4661 69.2758C60.641 69.4485 60.8778 69.5453 61.1249 69.5453H61.9219C62.5198 69.5453 63.0935 69.3106 63.5165 68.8934C63.9395 68.476 64.1769 67.9098 64.1769 67.3193V61.0687C64.1779 60.9314 64.1477 60.796 64.0885 60.672C64.0295 60.5477 63.9433 60.4383 63.8356 60.3513C63.7283 60.2647 63.6027 60.2024 63.4677 60.1698C63.3328 60.1369 63.1922 60.1344 63.056 60.1622Z" fill="#95C11F"/>
<path d="M80.0325 60.1622C79.8146 60.2087 79.6197 60.3286 79.4819 60.5013C79.3438 60.674 79.2711 60.8887 79.2762 61.1085V64.2008C79.2762 64.4624 79.1708 64.7132 78.9836 64.8982C78.7962 65.0832 78.5417 65.187 78.2767 65.187C77.8684 65.187 77.4772 65.0269 77.1884 64.742C76.8997 64.457 76.7372 64.0705 76.7372 63.6676V61.0019C76.7372 60.7581 76.6392 60.5244 76.4645 60.3517C76.2899 60.1793 76.0528 60.0825 75.8057 60.0825C75.5586 60.0825 75.3215 60.1793 75.1468 60.3517C74.9722 60.5244 74.8738 60.7581 74.8738 61.0019V67.1195C74.8703 67.2482 74.8161 67.3699 74.7229 67.4598C74.6296 67.5493 74.5043 67.5996 74.3742 67.5993H73.6721C73.4247 67.5993 73.1879 67.6963 73.0133 67.8687C72.8386 68.0411 72.7402 68.2751 72.7402 68.519C72.7402 68.7628 72.8386 68.9969 73.0133 69.1693C73.1879 69.3416 73.4247 69.4387 73.6721 69.4387H74.4822C75.0805 69.4387 75.6538 69.2041 76.0768 68.7869C76.4998 68.3694 76.7372 67.8033 76.7372 67.2128V66.4265C77.083 66.7421 77.5361 66.9183 78.0069 66.9196H78.6955C79.3438 66.9196 79.9655 66.6656 80.4237 66.213C80.882 65.7607 81.1396 65.1471 81.1396 64.5073V60.9621C81.1252 60.8356 81.0845 60.7132 81.0198 60.6031C80.955 60.4931 80.8682 60.3975 80.7641 60.3223C80.6599 60.247 80.541 60.1942 80.4151 60.1667C80.2891 60.1391 80.159 60.1376 80.0325 60.1622Z" fill="#95C11F"/>
<path d="M69.2816 60.1245C69.0185 60.1239 68.7561 60.1508 68.4984 60.2045C68.3283 60.2438 68.1767 60.3393 68.0687 60.4746C67.9607 60.6103 67.903 60.7783 67.9043 60.951V61.0708C67.904 61.1844 67.929 61.2967 67.9783 61.3994C68.0274 61.5022 68.0995 61.5927 68.1889 61.6645C68.2783 61.736 68.3831 61.7869 68.4949 61.8135C68.6071 61.8397 68.7234 61.841 68.8362 61.8173C69.0983 61.7575 69.3707 61.7575 69.6328 61.8173C70.109 61.9197 70.5247 62.2047 70.7881 62.6095C71.0515 63.0147 71.1412 63.5062 71.0374 63.9762C70.9332 64.4465 70.6445 64.8567 70.2343 65.1164C69.8242 65.3764 69.3258 65.4649 68.8497 65.3624C68.7362 65.3387 68.6192 65.3403 68.5064 65.3666C68.394 65.3931 68.2885 65.4437 68.1982 65.5152C68.1078 65.5864 68.0344 65.6768 67.9838 65.7793C67.9328 65.8821 67.9059 65.9944 67.9043 66.1089V66.2287C67.9053 66.4008 67.9642 66.5675 68.0716 66.7025C68.1793 66.8376 68.3296 66.9337 68.4984 66.9752C68.7423 67.0296 68.9913 67.0564 69.2412 67.0552C70.1725 67.0552 71.0656 66.6899 71.7241 66.0402C72.3823 65.3903 72.7521 64.5088 72.7521 63.5897C72.7521 62.6706 72.3823 61.7894 71.7241 61.1395C71.0656 60.4895 70.1725 60.1245 69.2412 60.1245H69.2816Z" fill="#95C11F"/>
<path d="M63.2852 59.4969C63.8072 59.4969 64.2302 59.0791 64.2302 58.5639C64.2302 58.0487 63.8072 57.6309 63.2852 57.6309C62.7632 57.6309 62.3398 58.0487 62.3398 58.5639C62.3398 59.0791 62.7632 59.4969 63.2852 59.4969Z" fill="#95C11F"/>
<path d="M80.179 69.6001C80.6341 69.6001 81.0029 69.2361 81.0029 68.7873C81.0029 68.3382 80.6341 67.9741 80.179 67.9741C79.7243 67.9741 79.3555 68.3382 79.3555 68.7873C79.3555 69.2361 79.7243 69.6001 80.179 69.6001Z" fill="#95C11F"/>
<path d="M79.3551 71C79.8099 71 80.1787 70.636 80.1787 70.1869C80.1787 69.7381 79.8099 69.374 79.3551 69.374C78.9001 69.374 78.5312 69.7381 78.5312 70.1869C78.5312 70.636 78.9001 71 79.3551 71Z" fill="#95C11F"/>
<path d="M78.5309 69.6001C78.9856 69.6001 79.3545 69.2361 79.3545 68.7873C79.3545 68.3382 78.9856 67.9741 78.5309 67.9741C78.0759 67.9741 77.707 68.3382 77.707 68.7873C77.707 69.2361 78.0759 69.6001 78.5309 69.6001Z" fill="#95C11F"/>
</g>
<g filter="url(#filter5_d)">
<path d="M17.4754 60.712C17.2588 60.7588 17.0658 60.8793 16.9301 61.0523C16.7943 61.225 16.7245 61.4397 16.7328 61.6583V64.7505C16.7328 65.0121 16.6274 65.2629 16.44 65.4479C16.2526 65.6327 15.9985 65.7367 15.7335 65.7367H14.8692V59.0727C14.8417 58.8462 14.7309 58.6375 14.558 58.486C14.3851 58.3348 14.1618 58.251 13.9306 58.251C13.6995 58.251 13.4763 58.3348 13.3034 58.486C13.1305 58.6375 13.0197 58.8462 12.9922 59.0727V66.6429C12.9922 66.887 13.0902 67.1208 13.265 67.2931C13.4397 67.4658 13.6767 67.5626 13.9239 67.5626H16.1385C16.4606 67.5645 16.78 67.5031 17.0781 67.383C17.3762 67.2625 17.6472 67.085 17.8756 66.8608C18.104 66.6365 18.2852 66.3702 18.4089 66.0764C18.5326 65.7829 18.5963 65.4682 18.5963 65.1503V61.6051C18.5928 61.4698 18.5595 61.3369 18.4989 61.2158C18.4382 61.0943 18.3516 60.9878 18.245 60.9027C18.1384 60.8179 18.0144 60.7569 17.8815 60.724C17.7487 60.6908 17.61 60.687 17.4754 60.712Z" fill="#113E81"/>
<path d="M8.4438 60.6985C7.99007 60.6931 7.53986 60.7773 7.11962 60.9462C6.69938 61.1151 6.31756 61.3652 5.99672 61.6818C5.67589 61.9984 5.42244 62.3754 5.25132 62.7901C5.0802 63.2051 4.99483 63.6491 5.00024 64.097C5.00893 64.5322 5.10529 64.9614 5.28378 65.3596C5.46227 65.7574 5.71937 66.1164 6.03992 66.4156C6.36044 66.7145 6.73806 66.9476 7.15077 67.101C7.56351 67.2544 8.00305 67.3252 8.4438 67.3091C9.06945 67.2522 9.67171 67.0463 10.1992 66.7094V67.1358C10.2039 67.3252 10.1637 67.5131 10.0817 67.6845C9.9996 67.8556 9.87795 68.0056 9.7266 68.1223C9.40169 68.3813 8.99651 68.5224 8.5788 68.522C8.30812 68.5202 8.04076 68.4626 7.79414 68.3522C7.54755 68.2421 7.32731 68.0818 7.14747 67.8822C7.08107 67.7956 6.99529 67.7253 6.89691 67.6769C6.79856 67.6282 6.69021 67.6029 6.58027 67.6023C6.41629 67.583 6.25023 67.6146 6.1052 67.6924C5.96013 67.7702 5.84323 67.8908 5.77055 68.0372C5.6979 68.1836 5.67316 68.3484 5.69966 68.5094C5.7262 68.6704 5.80266 68.819 5.9186 68.9351C6.2493 69.3226 6.6632 69.6322 7.13032 69.8422C7.59748 70.0519 8.1062 70.1563 8.61934 70.1481H8.87583C9.73285 70.0646 10.5266 69.6657 11.0996 69.0313C11.6725 68.3965 11.9826 67.5726 11.9683 66.7227V63.9771C11.9263 63.0861 11.5353 62.2461 10.8777 61.6344C10.2201 61.0227 9.34738 60.6871 8.4438 60.6985ZM8.4438 65.7498C8.1195 65.7524 7.80167 65.6597 7.53089 65.4835C7.26014 65.3074 7.04864 65.0556 6.92328 64.7602C6.79795 64.4651 6.7644 64.1397 6.82702 63.8256C6.88963 63.5115 7.04557 63.2231 7.27491 62.9966C7.50423 62.7705 7.79655 62.6165 8.11476 62.5548C8.43297 62.4928 8.76268 62.526 9.06179 62.6497C9.3609 62.7733 9.61598 62.9821 9.79451 63.2493C9.97303 63.5166 10.0669 63.8303 10.0642 64.1504C10.0607 64.5736 9.88878 64.9781 9.58567 65.2773C9.28252 65.5765 8.87247 65.7464 8.4438 65.7498Z" fill="#113E81"/>
<path d="M17.7789 59.9258C18.2339 59.9258 18.6027 59.5621 18.6027 59.113C18.6027 58.6638 18.2339 58.2998 17.7789 58.2998C17.324 58.2998 16.9551 58.6638 16.9551 59.113C16.9551 59.5621 17.324 59.9258 17.7789 59.9258Z" fill="#113E81"/>
<path d="M16.1421 59.9258C16.597 59.9258 16.9658 59.5621 16.9658 59.113C16.9658 58.6638 16.597 58.2998 16.1421 58.2998C15.6871 58.2998 15.3184 58.6638 15.3184 59.113C15.3184 59.5621 15.6871 59.9258 16.1421 59.9258Z" fill="#113E81"/>
<path d="M53.5217 58.1802C53.2747 58.1802 53.0375 58.277 52.8629 58.4496C52.6879 58.622 52.5898 58.8557 52.5898 59.0999V66.6435C52.5898 66.8874 52.6879 67.1211 52.8629 67.2938C53.0375 67.4662 53.2747 67.563 53.5217 67.563C53.7688 67.563 54.0059 67.4662 54.1806 67.2938C54.3552 67.1211 54.4533 66.8874 54.4533 66.6435V59.0863C54.4498 58.845 54.3501 58.6144 54.1758 58.4449C54.0014 58.2751 53.7665 58.1802 53.5217 58.1802Z" fill="#113E81"/>
<path d="M50.6186 60.7126C50.4007 60.7591 50.2061 60.879 50.068 61.0516C49.9299 61.2243 49.8572 61.4391 49.8623 61.6589V67.7764C49.8623 67.9035 49.811 68.0256 49.72 68.1158C49.6287 68.2056 49.505 68.2562 49.3762 68.2562H48.6741C48.427 68.2562 48.1899 68.353 48.0152 68.5257C47.8402 68.698 47.7422 68.9318 47.7422 69.1759C47.7422 69.4198 47.8402 69.6535 48.0152 69.8262C48.1899 69.9986 48.427 70.0954 48.6741 70.0954H49.4707C50.07 70.0954 50.6452 69.8613 51.0701 69.4445C51.4953 69.0273 51.7357 68.4612 51.7392 67.8697V61.6187C51.7376 61.4824 51.7059 61.3483 51.6463 61.2253C51.5863 61.1026 51.4998 60.9941 51.3931 60.9074C51.2861 60.8211 51.1617 60.7591 51.0278 60.7252C50.8938 60.6914 50.7541 60.6873 50.6186 60.7126Z" fill="#113E81"/>
<path d="M37.9212 60.7124C37.7046 60.7592 37.5117 60.8797 37.3758 61.0524C37.2399 61.2254 37.1701 61.4402 37.1784 61.6587V64.751C37.1749 65.0135 37.0665 65.2647 36.8768 65.4491C36.6875 65.6338 36.4321 65.7372 36.1658 65.7372C35.7575 65.7372 35.3656 65.5772 35.0772 65.2922C34.7885 65.0072 34.6263 64.6207 34.6263 64.2178V64.1245C34.6237 63.0826 34.3491 62.0592 33.8293 61.1524C33.7396 61.0094 33.6143 60.8915 33.4656 60.8099C33.3166 60.7283 33.149 60.6856 32.9785 60.6859C32.8058 60.6846 32.6353 60.7286 32.485 60.8127C32.3347 60.8971 32.2094 61.0189 32.122 61.166C32.0345 61.3134 31.9877 61.4807 31.9864 61.6515C31.9848 61.8219 32.0294 61.9902 32.1146 62.1385C32.5549 62.8875 32.7305 63.7595 32.6142 64.6176C32.5478 65.678 32.0576 66.669 31.251 67.3727C30.4444 68.0764 29.3875 68.4348 28.3131 68.3693C27.2387 68.3041 26.2346 67.8202 25.5217 67.0241C24.8088 66.2277 24.4456 65.185 24.5118 64.1245C24.5058 63.422 24.6924 62.7313 25.0519 62.1253C25.1338 61.9772 25.1755 61.8106 25.1725 61.6417C25.1695 61.4731 25.1221 61.308 25.0349 61.1628C24.9477 61.0176 24.8237 60.8971 24.6752 60.8136C24.5267 60.7301 24.3588 60.6859 24.1878 60.6859C24.0167 60.6814 23.8475 60.7226 23.6979 60.8045C23.5482 60.8867 23.4237 61.0066 23.337 61.1524C22.9192 61.8586 22.6533 62.6424 22.5557 63.4546C22.4581 64.2668 22.531 65.0901 22.7698 65.8732C23.0086 66.6563 23.4082 67.3825 23.9438 68.0065C24.4794 68.6308 25.1395 69.1394 25.8828 69.5006C26.6262 69.8621 27.4371 70.0683 28.2648 70.1069C29.0925 70.1455 29.9195 70.0155 30.694 69.7252C31.4686 69.4345 32.1745 68.9898 32.7674 68.4183C33.3602 67.8468 33.8274 67.1611 34.1402 66.4036C34.2802 66.7461 34.5209 67.04 34.8314 67.2465C35.1416 67.453 35.5075 67.5634 35.8818 67.5631H36.557C37.2066 67.5631 37.8299 67.3094 38.2904 66.8575C38.7509 66.4052 39.0114 65.7916 39.0149 65.1508V61.6056C39.0107 61.4731 38.978 61.3428 38.9191 61.2239C38.8601 61.1046 38.7762 60.9993 38.6727 60.9149C38.5692 60.8304 38.4487 60.7687 38.3189 60.7336C38.1894 60.6988 38.0535 60.6916 37.9212 60.7124Z" fill="#113E81"/>
<path d="M43.5962 60.6987C43.1424 60.6933 42.6922 60.7778 42.2721 60.9467C41.852 61.1156 41.47 61.3658 41.1492 61.6824C40.8284 61.9989 40.5749 62.3756 40.4038 62.7906C40.2327 63.2052 40.1471 63.6496 40.1526 64.0975C40.1612 64.5327 40.2577 64.9619 40.4362 65.3598C40.6147 65.758 40.8717 66.1169 41.1921 66.4158C41.5126 66.715 41.8904 66.9478 42.3031 67.1012C42.7159 67.2546 43.1556 67.3254 43.5962 67.3096C44.2265 67.2546 44.8338 67.0487 45.3651 66.7096V67.1363C45.3673 67.3267 45.3244 67.5149 45.2401 67.686C45.1558 67.8571 45.0321 68.0067 44.879 68.1225C44.5553 68.3837 44.1493 68.5251 43.7314 68.5222C43.4625 68.5203 43.1972 68.4625 42.953 68.3524C42.7085 68.242 42.4906 68.082 42.3134 67.8827C42.2448 67.7983 42.1589 67.7293 42.0609 67.6813C41.9631 67.6329 41.8558 67.606 41.7462 67.6028C41.5812 67.58 41.4129 67.6091 41.2655 67.6857C41.1178 67.7622 40.9983 67.8827 40.9239 68.0298C40.8493 68.1772 40.8233 68.3435 40.8499 68.5061C40.8762 68.6687 40.9537 68.8186 41.071 68.9356C41.4017 69.3228 41.8157 69.6327 42.2826 69.8424C42.7499 70.0524 43.2587 70.1568 43.7718 70.1482H44.0419C44.8988 70.0647 45.6926 69.6662 46.2656 69.0315C46.8385 68.397 47.1487 67.5728 47.1343 66.7229V63.9776C47.0923 63.0841 46.6991 62.2422 46.0387 61.6302C45.3782 61.0182 44.5021 60.6839 43.5962 60.6987ZM43.5962 65.75C43.2725 65.75 42.9559 65.6552 42.687 65.4774C42.4179 65.2997 42.2086 65.047 42.0852 64.7515C41.9622 64.4561 41.9305 64.131 41.9946 63.8179C42.0586 63.5048 42.2157 63.2173 42.4458 62.9924C42.6755 62.7675 42.9681 62.6148 43.286 62.554C43.6035 62.4933 43.9327 62.5271 44.231 62.6514C44.5293 62.7754 44.7835 62.9842 44.9613 63.2511C45.1392 63.518 45.2327 63.8312 45.2302 64.1506C45.2266 64.576 45.053 64.9831 44.7469 65.2826C44.4409 65.5821 44.0272 65.75 43.5962 65.75Z" fill="#113E81"/>
<path d="M28.619 63.4717C29.1411 63.4717 29.5644 63.0542 29.5644 62.539C29.5644 62.0234 29.1411 61.606 28.619 61.606C28.097 61.606 27.6738 62.0234 27.6738 62.539C27.6738 63.0542 28.097 63.4717 28.619 63.4717Z" fill="#113E81"/>
<path d="M37.9118 70.1494C38.3665 70.1494 38.7353 69.7854 38.7353 69.3366C38.7353 68.8875 38.3665 68.5234 37.9118 68.5234C37.4567 68.5234 37.0879 68.8875 37.0879 69.3366C37.0879 69.7854 37.4567 70.1494 37.9118 70.1494Z" fill="#113E81"/>
<path d="M36.263 70.1494C36.7181 70.1494 37.0866 69.7854 37.0866 69.3366C37.0866 68.8875 36.7181 68.5234 36.263 68.5234C35.808 68.5234 35.4395 68.8875 35.4395 69.3366C35.4395 69.7854 35.808 70.1494 36.263 70.1494Z" fill="#113E81"/>
<path d="M54.3069 55.2717V55.4985C54.3069 55.5655 54.2797 55.63 54.2316 55.6775C54.1836 55.7249 54.1182 55.7515 54.0503 55.7515H51.9436C51.6965 55.7515 51.4594 55.8486 51.2847 56.021C51.1101 56.1933 51.0117 56.4274 51.0117 56.6712V57.1245C51.0117 57.2481 51.0617 57.3667 51.1502 57.4543C51.2389 57.5416 51.3591 57.591 51.4844 57.591C51.6074 57.5875 51.7244 57.5366 51.81 57.4496C51.8958 57.3626 51.9436 57.2459 51.9436 57.1245V56.9246C51.9436 56.891 51.9503 56.8582 51.9631 56.8275C51.976 56.7968 51.9949 56.769 52.0189 56.7456C52.0426 56.7218 52.0708 56.7032 52.1022 56.6905C52.1333 56.6779 52.1666 56.6712 52.2003 56.6712H54.2935C54.4169 56.6731 54.5393 56.6504 54.654 56.6051C54.7687 56.5596 54.8729 56.4922 54.961 56.4065C55.0488 56.3211 55.1186 56.2189 55.1664 56.1067C55.2141 55.9941 55.2385 55.8736 55.2385 55.7515V55.2717C55.2385 55.148 55.1888 55.0294 55.1001 54.9418C55.0113 54.8545 54.8911 54.8052 54.7658 54.8052C54.6431 54.8087 54.5261 54.8596 54.4402 54.9466C54.3547 55.0335 54.3069 55.1502 54.3069 55.2717Z" fill="#113E81"/>
</g>
<defs>
<filter id="filter0_d" x="0.388672" y="0" width="59.1793" height="55.7964" filterUnits="userSpaceOnUse" color-interpolation-filters="sRGB">
<feFlood flood-opacity="0" result="BackgroundImageFix"/>
<feColorMatrix in="SourceAlpha" type="matrix" values="0 0 0 0 0 0 0 0 0 0 0 0 0 0 0 0 0 0 127 0"/>
<feOffset dy="3"/>
<feGaussianBlur stdDeviation="3"/>
<feColorMatrix type="matrix" values="0 0 0 0 0 0 0 0 0 0 0 0 0 0 0 0 0 0 0.16 0"/>
<feBlend mode="normal" in2="BackgroundImageFix" result="effect1_dropShadow"/>
<feBlend mode="normal" in="SourceGraphic" in2="effect1_dropShadow" result="shape"/>
</filter>
<filter id="filter1_d" x="20.5664" y="24.1909" width="19.0086" height="37.9364" filterUnits="userSpaceOnUse" color-interpolation-filters="sRGB">
<feFlood flood-opacity="0" result="BackgroundImageFix"/>
<feColorMatrix in="SourceAlpha" type="matrix" values="0 0 0 0 0 0 0 0 0 0 0 0 0 0 0 0 0 0 127 0"/>
<feOffset dy="3"/>
<feGaussianBlur stdDeviation="3"/>
<feColorMatrix type="matrix" values="0 0 0 0 0 0 0 0 0 0 0 0 0 0 0 0 0 0 0.16 0"/>
<feBlend mode="normal" in2="BackgroundImageFix" result="effect1_dropShadow"/>
<feBlend mode="normal" in="SourceGraphic" in2="effect1_dropShadow" result="shape"/>
</filter>
<filter id="filter2_d" x="50.7637" y="9.64502" width="58.1569" height="52.4819" filterUnits="userSpaceOnUse" color-interpolation-filters="sRGB">
<feFlood flood-opacity="0" result="BackgroundImageFix"/>
<feColorMatrix in="SourceAlpha" type="matrix" values="0 0 0 0 0 0 0 0 0 0 0 0 0 0 0 0 0 0 127 0"/>
<feOffset dy="3"/>
<feGaussianBlur stdDeviation="3"/>
<feColorMatrix type="matrix" values="0 0 0 0 0 0 0 0 0 0 0 0 0 0 0 0 0 0 0.16 0"/>
<feBlend mode="normal" in2="BackgroundImageFix" result="effect1_dropShadow"/>
<feBlend mode="normal" in="SourceGraphic" in2="effect1_dropShadow" result="shape"/>
</filter>
<filter id="filter3_d" x="70.2617" y="3.26562" width="19.0086" height="42.4413" filterUnits="userSpaceOnUse" color-interpolation-filters="sRGB">
<feFlood flood-opacity="0" result="BackgroundImageFix"/>
<feColorMatrix in="SourceAlpha" type="matrix" values="0 0 0 0 0 0 0 0 0 0 0 0 0 0 0 0 0 0 127 0"/>
<feOffset dy="3"/>
<feGaussianBlur stdDeviation="3"/>
<feColorMatrix type="matrix" values="0 0 0 0 0 0 0 0 0 0 0 0 0 0 0 0 0 0 0.16 0"/>
<feBlend mode="normal" in2="BackgroundImageFix" result="effect1_dropShadow"/>
<feBlend mode="normal" in="SourceGraphic" in2="effect1_dropShadow" result="shape"/>
</filter>
<filter id="filter4_d" x="58.1934" y="55.6309" width="47.8068" height="17.3692" filterUnits="userSpaceOnUse" color-interpolation-filters="sRGB">
<feFlood flood-opacity="0" result="BackgroundImageFix"/>
<feColorMatrix in="SourceAlpha" type="matrix" values="0 0 0 0 0 0 0 0 0 0 0 0 0 0 0 0 0 0 127 0"/>
<feOffset/>
<feGaussianBlur stdDeviation="1"/>
<feColorMatrix type="matrix" values="0 0 0 0 0 0 0 0 0 0 0 0 0 0 0 0 0 0 0.16 0"/>
<feBlend mode="normal" in2="BackgroundImageFix" result="effect1_dropShadow"/>
<feBlend mode="normal" in="SourceGraphic" in2="effect1_dropShadow" result="shape"/>
</filter>
<filter id="filter5_d" x="3" y="52.8052" width="54.2385" height="19.3443" filterUnits="userSpaceOnUse" color-interpolation-filters="sRGB">
<feFlood flood-opacity="0" result="BackgroundImageFix"/>
<feColorMatrix in="SourceAlpha" type="matrix" values="0 0 0 0 0 0 0 0 0 0 0 0 0 0 0 0 0 0 127 0"/>
<feOffset/>
<feGaussianBlur stdDeviation="1"/>
<feColorMatrix type="matrix" values="0 0 0 0 0 0 0 0 0 0 0 0 0 0 0 0 0 0 0.16 0"/>
<feBlend mode="normal" in2="BackgroundImageFix" result="effect1_dropShadow"/>
<feBlend mode="normal" in="SourceGraphic" in2="effect1_dropShadow" result="shape"/>
</filter>
</defs>
</svg>
