<svg width="165" height="71" viewBox="0 0 165 71" fill="none" xmlns="http://www.w3.org/2000/svg">
<g filter="url(#filter0_d)">
<path d="M138.501 16.9252C137.678 16.9183 136.857 17.002 136.052 17.175C135.513 17.2978 135.033 17.6005 134.69 18.033C134.347 18.4656 134.162 19.0021 134.165 19.554V19.9344C134.165 20.299 134.246 20.6591 134.404 20.9879C134.562 21.3167 134.792 21.6058 135.077 21.8337C135.362 22.0617 135.695 22.2226 136.05 22.3047C136.406 22.3867 136.775 22.3877 137.132 22.3076C137.959 22.1258 138.816 22.1258 139.643 22.3076C141.034 22.6207 142.262 23.4341 143.091 24.5929C143.921 25.7516 144.295 27.1748 144.141 28.5912C143.988 30.0077 143.319 31.3183 142.261 32.2735C141.203 33.2287 139.83 33.7616 138.405 33.7708C137.998 33.7707 137.592 33.7269 137.194 33.6402C136.836 33.5576 136.465 33.5565 136.107 33.6368C135.748 33.7171 135.413 33.8768 135.125 34.1041C134.837 34.3314 134.603 34.6205 134.442 34.95C134.281 35.2795 134.196 35.641 134.194 36.0078V36.3881C134.189 36.9385 134.373 37.4738 134.714 37.9061C135.055 38.3385 135.532 38.6421 136.069 38.7671C136.837 38.9311 137.619 39.0149 138.405 39.0169C141.295 38.9698 144.052 37.7938 146.086 35.7406C148.119 33.6874 149.267 30.9204 149.283 28.0322C149.299 25.1439 148.183 22.3641 146.173 20.2881C144.163 18.2121 141.419 17.0049 138.53 16.9252H138.501Z" fill="url(#paint0_linear)"/>
<path d="M137.131 14.7844C138.77 14.7844 140.098 13.4575 140.098 11.8207C140.098 10.1838 138.77 8.85693 137.131 8.85693C135.493 8.85693 134.165 10.1838 134.165 11.8207C134.165 13.4575 135.493 14.7844 137.131 14.7844Z" fill="url(#paint1_linear)"/>
<path d="M126.191 16.9819C125.512 17.1322 124.906 17.5121 124.476 18.0573C124.045 18.6025 123.816 19.2795 123.827 19.974V39.5108C123.827 39.9218 123.664 40.3161 123.373 40.6068C123.082 40.8975 122.687 41.0608 122.276 41.0608H120.071C119.29 41.0608 118.541 41.3706 117.989 41.9222C117.437 42.4737 117.127 43.2218 117.127 44.0018C117.127 44.7818 117.437 45.5298 117.989 46.0814C118.541 46.6329 119.29 46.9428 120.071 46.9428H122.588C124.478 46.9428 126.291 46.1927 127.627 44.8575C128.964 43.5222 129.714 41.7113 129.714 39.823V19.8661C129.715 19.4307 129.618 19.0007 129.432 18.6072C129.245 18.2137 128.974 17.8664 128.636 17.5904C128.299 17.3145 127.905 17.1167 127.482 17.0115C127.059 16.9063 126.618 16.8962 126.191 16.9819Z" fill="url(#paint2_linear)"/>
<path d="M156.823 8.99902C156.042 8.99902 155.293 9.30888 154.741 9.86042C154.189 10.412 153.879 11.16 153.879 11.94V36.0757C153.879 36.8557 154.189 37.6038 154.741 38.1553C155.293 38.7068 156.042 39.0167 156.823 39.0167C157.603 39.0167 158.352 38.7068 158.904 38.1553C159.456 37.6038 159.766 36.8557 159.766 36.0757V11.94C159.766 11.16 159.456 10.412 158.904 9.86042C158.352 9.30888 157.603 8.99902 156.823 8.99902Z" fill="url(#paint3_linear)"/>
<path d="M160.061 1.47051V2.20293C160.061 2.30704 160.041 2.41013 160.001 2.50625C159.961 2.60237 159.902 2.68962 159.828 2.76298C159.754 2.83634 159.666 2.89436 159.57 2.93368C159.473 2.97301 159.37 2.99288 159.266 2.99213H152.611C151.826 2.99213 151.073 3.30378 150.518 3.85852C149.962 4.41326 149.65 5.16565 149.65 5.95017V7.3923C149.65 7.58514 149.689 7.77608 149.763 7.95417C149.837 8.13226 149.945 8.29401 150.082 8.4301C150.219 8.5662 150.381 8.67397 150.559 8.74725C150.738 8.82053 150.929 8.85787 151.122 8.85712C151.511 8.85712 151.884 8.70278 152.159 8.42808C152.434 8.15337 152.588 7.7808 152.588 7.3923V6.74504C152.588 6.53423 152.672 6.33204 152.821 6.18298C152.971 6.03391 153.173 5.95017 153.384 5.95017H160.022C160.41 5.95017 160.795 5.87362 161.154 5.72489C161.513 5.57616 161.839 5.35819 162.113 5.08344C162.388 4.80868 162.605 4.48254 162.753 4.12369C162.902 3.76483 162.977 3.38032 162.977 2.99213V1.47051C162.977 1.08149 162.822 0.708313 162.548 0.432702C162.273 0.15709 161.9 0.00150201 161.511 0C161.124 0.00596293 160.756 0.163515 160.484 0.438645C160.213 0.713775 160.061 1.08441 160.061 1.47051Z" fill="url(#paint4_linear)"/>
<path d="M7.90892 11.94C7.90892 10.3158 6.59097 8.99902 4.9652 8.99902C3.33943 8.99902 2.02148 10.3158 2.02148 11.94V36.0757C2.02148 37.7 3.33943 39.0167 4.9652 39.0167C6.59097 39.0167 7.90892 37.7 7.90892 36.0757V11.94Z" fill="url(#paint5_linear)"/>
<path d="M37.9938 17.0444C37.3156 17.1949 36.7103 17.575 36.2805 18.1203C35.8507 18.6656 35.6228 19.3426 35.6354 20.0365V29.927C35.6354 30.342 35.5535 30.753 35.3944 31.1363C35.2352 31.5197 35.0019 31.8679 34.7079 32.1611C34.4139 32.4544 34.0649 32.6868 33.6809 32.8451C33.2969 33.0034 32.8855 33.0845 32.4701 33.0837C31.8333 33.0845 31.2026 32.9597 30.6141 32.7166C30.0257 32.4735 29.491 32.1168 29.0407 31.6669C28.5904 31.2171 28.2334 30.6829 27.99 30.0949C27.7467 29.507 27.6218 28.8769 27.6226 28.2407C27.6226 28.0193 27.6226 27.7979 27.6226 27.5707C27.5694 25.9549 27.1614 24.3704 26.4275 22.9295C25.6935 21.4886 24.6515 20.2265 23.3752 19.2325C22.0989 18.2385 20.6196 17.537 19.0418 17.1775C17.4641 16.818 15.8266 16.8094 14.2452 17.1523C13.7066 17.275 13.2261 17.5777 12.8831 18.0103C12.54 18.4428 12.355 18.9793 12.3585 19.5312V19.9116C12.359 20.2765 12.4415 20.6367 12.6 20.9654C12.7585 21.2942 12.989 21.5832 13.2743 21.811C13.5597 22.0389 13.8926 22.1997 14.2485 22.2817C14.6044 22.3638 14.9742 22.3648 15.3306 22.2849C16.158 22.1031 17.015 22.1031 17.8424 22.2849C19.2358 22.5986 20.4646 23.4142 21.294 24.576C22.1234 25.7377 22.4953 27.1641 22.3384 28.5825C22.1816 30.0009 21.5072 31.3118 20.444 32.2647C19.3808 33.2176 18.0034 33.7457 16.5751 33.748C16.1662 33.7483 15.7585 33.7045 15.359 33.6174C15.0013 33.5349 14.6297 33.5337 14.2715 33.614C13.9133 33.6943 13.5777 33.854 13.2897 34.0813C13.0016 34.3086 12.7683 34.5978 12.6071 34.9273C12.4459 35.2568 12.361 35.6183 12.3585 35.985V36.3654C12.3544 36.9157 12.5378 37.451 12.8786 37.8834C13.2195 38.3157 13.6974 38.6194 14.2338 38.7444C15.0035 38.9084 15.7881 38.9921 16.5751 38.9942C18.4139 38.9942 20.2236 38.5357 21.8401 37.6603C23.4567 36.7849 24.8289 35.5201 25.8325 33.9808C26.0504 35.3635 26.7552 36.623 27.8199 37.5327C28.8846 38.4424 30.2394 38.9425 31.6404 38.9431H33.7828C34.7997 38.9438 35.8068 38.7443 36.7465 38.3561C37.6863 37.9678 38.5402 37.3983 39.2595 36.6801C39.9788 35.962 40.5495 35.1093 40.9388 34.1707C41.3281 33.2321 41.5285 32.2261 41.5285 31.2101V19.9286C41.528 19.4924 41.4305 19.0617 41.243 18.6677C41.0556 18.2737 40.783 17.9262 40.4448 17.6502C40.1066 17.3743 39.7113 17.1768 39.2874 17.072C38.8636 16.9673 38.4217 16.9578 37.9938 17.0444Z" fill="url(#paint6_linear)"/>
<path d="M38.5623 47.0338C39.9903 47.0338 41.148 45.8772 41.148 44.4505C41.148 43.0238 39.9903 41.8672 38.5623 41.8672C37.1342 41.8672 35.9766 43.0238 35.9766 44.4505C35.9766 45.8772 37.1342 47.0338 38.5623 47.0338Z" fill="url(#paint7_linear)"/>
<path d="M33.3855 47.0163C34.8135 47.0163 35.9712 45.8597 35.9712 44.4329C35.9712 43.0062 34.8135 41.8496 33.3855 41.8496C31.9575 41.8496 30.7998 43.0062 30.7998 44.4329C30.7998 45.8597 31.9575 47.0163 33.3855 47.0163Z" fill="url(#paint8_linear)"/>
<path d="M71.6137 17.0444C70.935 17.1948 70.329 17.5746 69.8983 18.1198C69.4675 18.665 69.2384 19.342 69.2497 20.0365V29.927C69.2497 30.7642 68.9168 31.5671 68.3242 32.1591C67.7317 32.7511 66.928 33.0837 66.09 33.0837C65.4527 33.0852 64.8215 32.961 64.2323 32.7182C63.6432 32.4755 63.1079 32.1189 62.657 31.6689C62.2061 31.219 61.8486 30.6846 61.6049 30.0963C61.3612 29.508 61.2361 28.8774 61.2369 28.2407C61.2369 28.0193 61.2369 27.7979 61.2369 27.5707C61.1837 25.9549 60.7757 24.3704 60.0418 22.9295C59.3078 21.4886 58.2658 20.2265 56.9895 19.2325C55.7132 18.2385 54.2339 17.537 52.6561 17.1775C51.0784 16.818 49.4409 16.8094 47.8594 17.1523C47.3209 17.275 46.8404 17.5777 46.4974 18.0103C46.1543 18.4428 45.9692 18.9793 45.9727 19.5312V19.9116C45.9732 20.2765 46.0558 20.6367 46.2143 20.9654C46.3728 21.2942 46.6033 21.5832 46.8886 21.811C47.1739 22.0389 47.5068 22.1997 47.8628 22.2817C48.2187 22.3638 48.5885 22.3648 48.9449 22.2849C49.7723 22.1031 50.6293 22.1031 51.4567 22.2849C52.203 22.4478 52.9098 22.756 53.5369 23.1918C54.164 23.6276 54.699 24.1826 55.1114 24.825C55.5238 25.4674 55.8055 26.1847 55.9404 26.9359C56.0754 27.6871 56.0609 28.4575 55.8978 29.2031C55.7348 29.9487 55.4263 30.6549 54.9901 31.2814C54.5538 31.9079 53.9984 32.4424 53.3554 32.8544C52.7123 33.2664 51.9944 33.5479 51.2425 33.6827C50.4907 33.8175 49.7196 33.8031 48.9733 33.6401C48.6156 33.5576 48.2439 33.5564 47.8857 33.6367C47.5276 33.717 47.192 33.8767 46.9039 34.104C46.6158 34.3313 46.3826 34.6204 46.2214 34.95C46.0602 35.2795 45.9752 35.641 45.9727 36.0077V36.3881C45.9689 36.9392 46.1532 37.4751 46.4951 37.9076C46.8371 38.34 47.3162 38.6432 47.8537 38.7671C48.6214 38.9314 49.4043 39.0151 50.1894 39.0169C52.0288 39.0163 53.8391 38.5577 55.4565 37.6823C57.0738 36.807 58.4472 35.5426 59.4524 34.0035C59.668 35.3862 60.3713 36.6463 61.4353 37.5563C62.4994 38.4663 63.854 38.9662 65.2547 38.9658H67.4028C69.4555 38.9658 71.4242 38.1511 72.8758 36.7008C74.3273 35.2506 75.1428 33.2837 75.1428 31.2328V19.9286C75.142 19.493 75.0447 19.0629 74.8576 18.6694C74.6705 18.2759 74.3984 17.9287 74.0609 17.6529C73.7234 17.377 73.3288 17.1794 72.9057 17.0742C72.4825 16.969 72.0413 16.9588 71.6137 17.0444Z" fill="url(#paint9_linear)"/>
<path d="M71.4889 14.7844C73.1272 14.7844 74.4553 13.4575 74.4553 11.8207C74.4553 10.1838 73.1272 8.85693 71.4889 8.85693C69.8506 8.85693 68.5225 10.1838 68.5225 11.8207C68.5225 13.4575 69.8506 14.7844 71.4889 14.7844Z" fill="url(#paint10_linear)"/>
<path d="M94.3678 33.129H85.4685V11.94C85.4685 11.16 85.1584 10.412 84.6063 9.86042C84.0543 9.30888 83.3055 8.99902 82.5248 8.99902C81.744 8.99902 80.9953 9.30888 80.4433 9.86042C79.8912 10.412 79.5811 11.16 79.5811 11.94V36.0757C79.5811 36.8557 79.8912 37.6038 80.4433 38.1553C80.9953 38.7068 81.744 39.0167 82.5248 39.0167H95.6749" fill="url(#paint11_linear)"/>
<path d="M105.512 9.07864H94.7142C93.7619 9.07861 92.8294 9.34987 92.0261 9.86063C91.2227 10.3714 90.5818 11.1004 90.1786 11.9623C89.7753 12.8241 89.6264 13.7829 89.7493 14.7263C89.8722 15.6697 90.2619 16.5585 90.8725 17.2885L99.9651 28.1441C100.337 28.5871 100.575 29.1271 100.651 29.7005C100.727 30.274 100.637 30.8571 100.392 31.3813C100.147 31.9055 99.7578 32.3489 99.2694 32.6596C98.7811 32.9702 98.2141 33.1351 97.6351 33.1348H85.7012V39.0168H99.9538C101.535 39.0183 103.083 38.5675 104.415 37.7179C105.748 36.8683 106.809 35.6552 107.474 34.2222C108.139 32.7891 108.379 31.196 108.166 29.6309C107.953 28.0659 107.296 26.5945 106.273 25.3905L97.0669 14.4951H105.517C105.875 14.4958 106.229 14.426 106.56 14.2896C106.89 14.1532 107.191 13.9529 107.444 13.7002C107.697 13.4475 107.897 13.1474 108.034 12.8171C108.17 12.4868 108.24 12.1329 108.239 11.7755C108.235 11.0567 107.945 10.3691 107.434 9.86347C106.922 9.35787 106.231 9.07562 105.512 9.07864Z" fill="url(#paint12_linear)"/>
</g>
<g filter="url(#filter1_d)">
<path d="M58.7577 60.1798C58.9707 60.1283 59.186 60.2576 59.2348 60.4713C59.2874 60.7009 59.3366 60.9379 59.3826 61.1822C59.4548 61.5653 59.4969 61.9723 59.5089 62.4033C59.5169 62.7625 59.4688 63.0837 59.3646 63.367C59.2644 63.6464 59.1201 63.8838 58.9317 64.0794C58.7473 64.2749 58.5248 64.4246 58.2643 64.5283C58.0037 64.6321 57.7171 64.6839 57.4044 64.6839L53.7787 64.6959C53.2376 64.6959 52.7045 64.6939 52.1793 64.6899C51.6582 64.6899 51.1692 64.662 50.7122 64.6061C50.2553 64.5463 49.8424 64.4485 49.4736 64.3128C49.1088 64.1731 48.8142 63.9716 48.5897 63.7082C48.261 63.3251 48.0967 62.8383 48.0967 62.2477C48.0967 62.0441 48.1107 61.8406 48.1388 61.6371C48.1708 61.4296 48.2049 61.242 48.241 61.0744C48.2771 60.9028 48.3091 60.7631 48.3372 60.6554C48.3671 60.5512 48.4671 60.4989 48.5708 60.5304L49.3359 60.7632C49.4119 60.7863 49.4547 60.8667 49.4315 60.9427C49.4075 61.0345 49.3794 61.1502 49.3473 61.2899C49.3193 61.4296 49.2912 61.5852 49.2632 61.7568C49.2391 61.9244 49.2271 62.088 49.2271 62.2477C49.2271 62.5709 49.3173 62.8243 49.4977 63.0079C49.682 63.1875 49.9606 63.3191 50.3334 63.4029C50.7102 63.4868 51.1832 63.5366 51.7524 63.5526C52.3257 63.5686 53.0011 63.5745 53.7787 63.5706L57.4044 63.5526C57.5648 63.5526 57.7051 63.5247 57.8253 63.4688C57.9496 63.4129 58.0518 63.3351 58.132 63.2353C58.2122 63.1356 58.2723 63.0179 58.3124 62.8822C58.3525 62.7425 58.3685 62.5929 58.3605 62.4332C58.3525 62.0581 58.3144 61.699 58.2462 61.3558C58.2077 61.1494 58.1662 60.9467 58.1219 60.7476C58.0736 60.5311 58.2051 60.3136 58.4207 60.2614L58.7577 60.1798ZM55.2052 59.81C55.0484 59.9661 54.7947 59.9653 54.639 59.8082L54.2471 59.4131C54.0938 59.2586 54.0922 59.0098 54.2436 58.8533L54.627 58.4569C54.7822 58.2965 55.0386 58.2941 55.1967 58.4516L55.5985 58.8515C55.7555 59.0078 55.7555 59.2621 55.5985 59.4184L55.2052 59.81ZM52.9023 59.798C52.7455 59.9541 52.4918 59.9533 52.3361 59.7962L51.9442 59.4012C51.7909 59.2466 51.7893 58.9978 51.9407 58.8414L52.3241 58.445C52.4793 58.2845 52.7357 58.2821 52.8938 58.4396L53.2956 58.8395C53.4526 58.9959 53.4526 59.2501 53.2956 59.4065L52.9023 59.798Z" fill="#717EFF"/>
<path d="M63.8137 64.678C63.4329 64.674 63.1717 64.646 62.8951 64.5942C62.6225 64.5383 62.3901 64.4605 62.1976 64.3607C62.0092 64.2569 61.8569 64.1292 61.7407 63.9776C61.6284 63.822 61.5403 63.6424 61.4761 63.4389C61.412 63.2314 61.3699 62.9999 61.3498 62.7445C61.3298 62.4891 61.3198 62.2058 61.3198 61.8945V56.536C61.3198 56.3151 61.4989 56.136 61.7198 56.136H62.0562C62.2771 56.136 62.4562 56.3151 62.4562 56.536V61.8945C62.4562 62.2417 62.4662 62.523 62.4863 62.7385C62.5103 62.954 62.5684 63.1216 62.6606 63.2413C62.7568 63.3571 62.8991 63.4369 63.0875 63.4808C63.2799 63.5207 63.477 63.5426 63.8137 63.5466V64.678Z" fill="#717EFF"/>
<path d="M66.7921 59.8632C66.8972 59.831 67.0043 59.8899 67.0291 59.9969C67.0531 60.1007 67.0792 60.2304 67.1073 60.386C67.1393 60.5377 67.1734 60.7073 67.2095 60.8948C67.2456 61.0784 67.2776 61.266 67.3057 61.4575C67.3337 61.6451 67.3578 61.8267 67.3778 62.0022C67.3979 62.1778 67.4079 62.3315 67.4079 62.4632C67.4079 62.8463 67.3438 63.1775 67.2155 63.4568C67.0912 63.7322 66.9269 63.9616 66.7224 64.1452C66.522 64.3248 66.2955 64.4585 66.043 64.5463C65.7905 64.6341 65.5359 64.678 65.2794 64.678H63.8137V63.5466H65.2794C65.3395 63.5466 65.4237 63.5386 65.5319 63.5227C65.6442 63.5027 65.7544 63.4568 65.8626 63.385C65.9749 63.3132 66.0711 63.2054 66.1512 63.0618C66.2354 62.9181 66.2775 62.7186 66.2775 62.4632C66.2775 62.3754 66.2695 62.2656 66.2534 62.1339C66.2414 61.9982 66.2234 61.8546 66.1993 61.7029C66.1793 61.5473 66.1552 61.3897 66.1272 61.2301C66.0991 61.0664 66.0711 60.9128 66.043 60.7691C66.0149 60.6255 65.9889 60.4978 65.9648 60.386C65.9346 60.2457 66.0147 60.101 66.1519 60.059L66.7921 59.8632ZM65.1503 67.1327C64.9955 66.9767 64.9955 66.725 65.1503 66.569L65.6105 66.1055C65.7663 65.9486 66.0198 65.9479 66.1765 66.1039L66.6542 66.5794C66.8112 66.7357 66.8112 66.9899 66.6542 67.1463L66.1885 67.6098C66.0318 67.7658 65.7783 67.7651 65.6225 67.6082L65.1503 67.1327Z" fill="#717EFF"/>
<path d="M71.8853 64.678C71.5045 64.674 71.2584 64.646 70.9818 64.5942C70.7092 64.5383 70.4768 64.4605 70.2843 64.3607C70.0959 64.2569 69.9436 64.1292 69.8274 63.9776C69.7151 63.822 69.627 63.6424 69.5628 63.4389C69.4987 63.2314 69.4566 62.9999 69.4365 62.7445C69.4165 62.4891 69.4065 62.2058 69.4065 61.8945V56.536C69.4065 56.3151 69.5856 56.136 69.8065 56.136H70.1429C70.3638 56.136 70.5429 56.3151 70.5429 56.536V61.8945C70.5429 62.2417 70.5529 62.523 70.573 62.7385C70.597 62.954 70.6551 63.1216 70.7473 63.2413C70.8435 63.3571 70.9858 63.4369 71.1742 63.4808C71.3666 63.5207 71.5486 63.5426 71.8853 63.5466V64.678Z" fill="#717EFF"/>
<path d="M79.9119 62.0315C79.9352 62.1852 79.8676 62.3391 79.7389 62.4264C79.7116 62.4449 79.6818 62.4651 79.6494 62.4871C79.531 62.5675 79.3864 62.6596 79.2155 62.7633C79.0581 62.859 78.9706 63.0596 79.0883 63.2014C79.1093 63.2267 79.132 63.25 79.1564 63.2713C79.2566 63.3511 79.3608 63.4129 79.469 63.4568C79.5773 63.4967 79.6795 63.5227 79.7757 63.5346C79.8719 63.5426 79.94 63.5466 79.9801 63.5466H81.1362V64.678H79.9801C79.6875 64.678 79.4129 64.6361 79.1564 64.5523C78.9038 64.4645 78.6753 64.3368 78.4709 64.1692C78.3479 64.0657 78.2406 63.9511 78.149 63.8253C78.0149 63.641 77.771 63.5471 77.5639 63.6424C77.3672 63.7329 77.1625 63.8227 76.9497 63.9118C76.5969 64.0554 76.2302 64.1851 75.8493 64.3008C75.4725 64.4126 75.0837 64.5044 74.6829 64.5762C74.286 64.644 73.8892 64.678 73.4923 64.678H71.8853V63.5466H73.4923C73.9413 63.5466 74.3943 63.4947 74.8512 63.391C75.3122 63.2832 75.7551 63.1515 76.18 62.9959C76.605 62.8363 77.0038 62.6647 77.3766 62.4811C77.4665 62.4359 77.5537 62.3913 77.6383 62.3475C77.934 62.1942 77.9052 61.7746 77.5946 61.6544C77.4598 61.6023 77.325 61.5506 77.1902 61.4994C76.8054 61.3518 76.4526 61.2221 76.1319 61.1103C75.8113 60.9946 75.5347 60.9008 75.3022 60.829C75.1011 60.7658 74.959 60.7257 74.8759 60.7089C74.8555 60.7048 74.8348 60.7032 74.814 60.7037C74.7551 60.7052 74.6934 60.7111 74.6288 60.7212C74.5566 60.7332 74.4844 60.7691 74.4123 60.829C74.3401 60.8889 74.27 60.9826 74.2019 61.1103C74.1782 61.1533 74.155 61.2025 74.1323 61.258C74.0488 61.462 73.8369 61.592 73.6236 61.5363L73.2962 61.4508C73.0824 61.395 72.9518 61.175 73.0283 60.9677C73.3707 60.0412 73.9804 59.5779 74.8572 59.5779C74.8853 59.5779 74.9174 59.5799 74.9534 59.5839C74.9935 59.5839 75.0517 59.5939 75.1278 59.6138C75.208 59.6298 75.3102 59.6577 75.4345 59.6976C75.5587 59.7336 75.7211 59.7854 75.9215 59.8533C76.1219 59.9211 76.3644 60.0089 76.649 60.1167C76.9336 60.2204 77.2744 60.3501 77.6712 60.5058L79.5779 61.2082C79.7147 61.2586 79.8133 61.3795 79.8351 61.5237L79.9119 62.0315ZM73.8323 57.4115C73.6774 57.2555 73.6774 57.0038 73.8323 56.8478L74.2924 56.3844C74.4482 56.2274 74.7018 56.2267 74.8585 56.3827L75.3361 56.8582C75.4932 57.0145 75.4932 57.2688 75.3361 57.4251L74.8705 57.8887C74.7138 58.0447 74.4603 58.0439 74.3045 57.887L73.8323 57.4115Z" fill="#717EFF"/>
<path d="M85.6367 58.7146C85.48 58.8706 85.2263 58.8698 85.0706 58.7128L84.6787 58.3177C84.5254 58.1632 84.5238 57.9144 84.6751 57.7579L85.0586 57.3615C85.2138 57.2011 85.4702 57.1987 85.6283 57.3561L86.0301 57.7561C86.1871 57.9124 86.1871 58.1667 86.0301 58.323L85.6367 58.7146ZM83.3339 58.7026C83.1771 58.8587 82.9234 58.8579 82.7677 58.7008L82.3758 58.3057C82.2225 58.1512 82.2209 57.9024 82.3723 57.746L82.7557 57.3495C82.9109 57.1891 83.1673 57.1867 83.3254 57.3442L83.7272 57.7441C83.8842 57.9005 83.8842 58.1547 83.7272 58.311L83.3339 58.7026ZM87.4074 63.5466V64.678H86.5012C86.1364 64.678 85.8137 64.6261 85.5331 64.5223C85.4089 64.4757 85.2955 64.4186 85.1931 64.351C84.9953 64.2206 84.72 64.2044 84.5171 64.3268C84.1291 64.5609 83.628 64.678 83.0138 64.678H81.1362V63.5466H83.0138C83.3024 63.5466 83.5309 63.5187 83.6992 63.4628C83.8676 63.4029 83.9939 63.3311 84.0781 63.2473C84.1662 63.1595 84.2224 63.0637 84.2464 62.96C84.2745 62.8522 84.2885 62.7505 84.2885 62.6547V61.0315C84.2885 60.8105 84.4676 60.6315 84.6885 60.6315H85.0189C85.2398 60.6315 85.4189 60.8105 85.4189 61.0315V62.6128C85.4189 62.7605 85.4409 62.8862 85.485 62.9899C85.5331 63.0937 85.5913 63.1815 85.6594 63.2533C85.7276 63.3211 85.8037 63.375 85.8879 63.4149C85.9761 63.4548 86.0603 63.4848 86.1404 63.5047C86.2206 63.5247 86.2928 63.5366 86.3569 63.5406C86.421 63.5446 86.4691 63.5466 86.5012 63.5466H87.4074Z" fill="#717EFF"/>
<path d="M90.3675 59.8632C90.4727 59.831 90.5797 59.8899 90.6045 59.9969C90.6286 60.1007 90.6546 60.2304 90.6827 60.386C90.7148 60.5377 90.7488 60.7073 90.7849 60.8948C90.821 61.0784 90.8531 61.266 90.8811 61.4575C90.9092 61.6451 90.9332 61.8267 90.9533 62.0022C90.9733 62.1778 90.9833 62.3315 90.9833 62.4632C90.9833 62.8463 90.9192 63.1775 90.7909 63.4568C90.6667 63.7322 90.5023 63.9616 90.2979 64.1452C90.0975 64.3248 89.871 64.4585 89.6184 64.5463C89.3659 64.6341 89.1114 64.678 88.8548 64.678H87.4074V63.5466H88.8548C88.9149 63.5466 88.9991 63.5386 89.1074 63.5227C89.2196 63.5027 89.3298 63.4568 89.4381 63.385C89.5503 63.3132 89.6465 63.2054 89.7267 63.0618C89.8108 62.9181 89.8529 62.7186 89.8529 62.4632C89.8529 62.3754 89.8449 62.2656 89.8289 62.1339C89.8169 61.9982 89.7988 61.8546 89.7748 61.7029C89.7547 61.5473 89.7307 61.3897 89.7026 61.2301C89.6746 61.0664 89.6465 60.9128 89.6184 60.7691C89.5904 60.6255 89.5643 60.4978 89.5403 60.386C89.5101 60.2457 89.5901 60.101 89.7274 60.059L90.3675 59.8632ZM88.822 57.615C88.6671 57.4591 88.6671 57.2073 88.822 57.0514L89.2821 56.5879C89.4379 56.4309 89.6915 56.4302 89.8482 56.5862L90.3258 57.0617C90.4829 57.2181 90.4829 57.4723 90.3258 57.6286L89.8602 58.0922C89.7035 58.2482 89.4499 58.2474 89.2941 58.0905L88.822 57.615Z" fill="#717EFF"/>
<path d="M93.8776 64.272C93.8776 64.4929 93.6985 64.672 93.4776 64.672H93.1412C92.9203 64.672 92.7412 64.4929 92.7412 64.272V56.536C92.7412 56.3151 92.9203 56.136 93.1412 56.136H93.4776C93.6985 56.136 93.8776 56.3151 93.8776 56.536V64.272Z" fill="#717EFF"/>
<path d="M99.1423 68.0002C98.9214 68.0002 98.7423 67.8211 98.7423 67.6002V67.2688C98.7423 67.0479 98.9214 66.8688 99.1423 66.8688H99.5721C99.9849 66.8688 100.342 66.8189 100.642 66.7192C100.947 66.6234 101.198 66.4737 101.394 66.2702C101.594 66.0667 101.741 65.8073 101.833 65.492C101.929 65.1768 101.977 64.8017 101.977 64.3667V61.0315C101.977 60.8105 102.156 60.6315 102.377 60.6315H102.714C102.934 60.6315 103.114 60.8105 103.114 61.0315V64.3667C103.114 64.9373 103.037 65.4462 102.885 65.8931C102.737 66.344 102.514 66.7251 102.218 67.0364C101.921 67.3477 101.55 67.5851 101.105 67.7487C100.664 67.9164 100.153 68.0002 99.5721 68.0002H99.1423Z" fill="#717EFF"/>
<path d="M106.966 64.7677C106.762 64.7677 106.555 64.7578 106.347 64.7378C106.139 64.7219 105.934 64.6959 105.734 64.66C105.537 64.6201 105.347 64.5702 105.163 64.5103C104.982 64.4465 104.818 64.3707 104.669 64.2829L104.521 64.1992C104.328 64.0903 104.26 63.8447 104.37 63.6521L104.538 63.3588C104.647 63.1679 104.89 63.101 105.082 63.209L105.235 63.2952C105.375 63.375 105.547 63.4409 105.752 63.4927C105.956 63.5406 106.173 63.5765 106.401 63.6005C106.63 63.6204 106.86 63.6284 107.093 63.6244C107.325 63.6204 107.54 63.6045 107.736 63.5765C107.968 63.5406 108.159 63.4907 108.307 63.4269C108.46 63.3591 108.556 63.2832 108.596 63.1994C108.636 63.1116 108.63 62.9899 108.578 62.8343C108.526 62.6786 108.435 62.5051 108.307 62.3135L106.355 59.3764C106.231 59.1909 106.283 58.9403 106.471 58.8192L106.841 58.5792C106.98 58.4893 107.166 58.5286 107.255 58.6681C107.311 58.7519 107.377 58.8516 107.453 58.9674C107.53 59.0791 107.618 59.2128 107.718 59.3684C107.818 59.5201 107.94 59.7036 108.085 59.9191C108.229 60.1346 108.397 60.386 108.59 60.6734C108.782 60.9607 109.007 61.2959 109.263 61.679C109.363 61.8306 109.454 61.9903 109.534 62.1579C109.614 62.3215 109.674 62.4871 109.714 62.6547C109.754 62.8223 109.77 62.9919 109.762 63.1635C109.758 63.3311 109.718 63.4967 109.642 63.6603C109.389 64.223 108.808 64.5702 107.898 64.7019C107.758 64.7219 107.61 64.7378 107.453 64.7498C107.297 64.7618 107.135 64.7677 106.966 64.7677Z" fill="#717EFF"/>
<path d="M115.551 67.2509C115.551 67.0299 115.73 66.8519 115.951 66.8437C116.384 66.8275 116.76 66.784 117.078 66.7132C117.491 66.6214 117.818 66.4797 118.058 66.2882C118.267 66.1206 118.419 65.9071 118.515 65.6477C118.579 65.4832 118.622 65.2931 118.646 65.0773C118.669 64.8577 118.487 64.678 118.266 64.678H117.559C117.279 64.678 116.994 64.6361 116.706 64.5523C116.417 64.4684 116.154 64.3308 115.918 64.1392C115.685 63.9477 115.495 63.6983 115.347 63.391C115.198 63.0797 115.124 62.7006 115.124 62.2536C115.124 61.9903 115.146 61.7528 115.19 61.5413C115.238 61.3258 115.297 61.1343 115.365 60.9667C115.437 60.7991 115.515 60.6534 115.599 60.5297C115.683 60.406 115.766 60.3002 115.846 60.2124C116.066 59.993 116.319 59.8234 116.603 59.7036C116.888 59.5839 117.193 59.5241 117.517 59.5241C117.802 59.5241 118.068 59.568 118.317 59.6557C118.566 59.7435 118.788 59.8752 118.984 60.0508C119.526 60.5536 119.796 61.3418 119.796 62.4153V63.1466C119.796 63.3675 119.975 63.5466 120.196 63.5466H120.635V64.678H120.196C119.975 64.678 119.798 64.8574 119.781 65.0776C119.75 65.4769 119.671 65.8306 119.544 66.1385C119.379 66.5496 119.123 66.8928 118.774 67.1681C118.421 67.4435 117.982 67.647 117.457 67.7787C117.031 67.8895 116.529 67.9551 115.951 67.9754C115.73 67.9831 115.551 67.8031 115.551 67.5822V67.2509ZM117.517 60.6554C117.12 60.6554 116.812 60.7951 116.591 61.0744C116.371 61.3538 116.261 61.7468 116.261 62.2536C116.261 62.7684 116.417 63.1256 116.73 63.3251C116.806 63.373 116.884 63.4129 116.964 63.4449C117.044 63.4728 117.122 63.4947 117.199 63.5107C117.275 63.5227 117.343 63.5326 117.403 63.5406C117.467 63.5446 117.519 63.5466 117.559 63.5466H118.266C118.487 63.5466 118.666 63.3675 118.666 63.1466V62.4153C118.666 62.124 118.644 61.8785 118.6 61.679C118.555 61.4755 118.499 61.3079 118.431 61.1762C118.363 61.0445 118.285 60.9447 118.197 60.8769C118.113 60.805 118.028 60.7532 117.944 60.7212C117.86 60.6893 117.78 60.6714 117.704 60.6674C117.628 60.6594 117.565 60.6554 117.517 60.6554Z" fill="#717EFF"/>
<path d="M123.619 59.8632C123.724 59.831 123.831 59.8899 123.856 59.9969C123.88 60.1007 123.906 60.2304 123.934 60.386C123.966 60.5377 124 60.7073 124.036 60.8948C124.072 61.0784 124.104 61.266 124.132 61.4575C124.16 61.6451 124.184 61.8267 124.204 62.0022C124.224 62.1778 124.234 62.3315 124.234 62.4632C124.234 62.8463 124.17 63.1775 124.042 63.4568C123.918 63.7322 123.753 63.9616 123.549 64.1452C123.349 64.3248 123.122 64.4585 122.869 64.5463C122.617 64.6341 122.362 64.678 122.106 64.678H120.635V63.5466H122.106C122.166 63.5466 122.25 63.5386 122.358 63.5227C122.471 63.5027 122.581 63.4568 122.689 63.385C122.801 63.3132 122.898 63.2054 122.978 63.0618C123.062 62.9181 123.104 62.7186 123.104 62.4632C123.104 62.3754 123.096 62.2656 123.08 62.1339C123.068 61.9982 123.05 61.8546 123.026 61.7029C123.006 61.5473 122.982 61.3897 122.954 61.2301C122.926 61.0664 122.898 60.9128 122.869 60.7691C122.841 60.6255 122.815 60.4978 122.791 60.386C122.761 60.2457 122.841 60.101 122.978 60.059L123.619 59.8632ZM122.073 57.615C121.918 57.4591 121.918 57.2073 122.073 57.0514L122.533 56.5879C122.689 56.4309 122.943 56.4302 123.099 56.5862L123.577 57.0617C123.734 57.2181 123.734 57.4723 123.577 57.6286L123.111 58.0922C122.955 58.2482 122.701 58.2474 122.545 58.0905L122.073 57.615Z" fill="#717EFF"/>
<path d="M138.356 64.678C138.229 64.678 138.147 64.8124 138.194 64.9298C138.288 65.165 138.34 65.3903 138.349 65.6058C138.365 65.8971 138.319 66.1645 138.211 66.4079C138.103 66.6513 137.938 66.8708 137.718 67.0663C137.497 67.2619 137.237 67.4255 136.936 67.5572C136.635 67.6929 136.301 67.7966 135.932 67.8685C135.563 67.9443 135.174 67.9822 134.765 67.9822H133.052C132.418 67.9822 131.849 67.8445 131.344 67.5692C130.839 67.2938 130.426 66.9127 130.106 66.4259C129.889 66.0827 129.733 65.7016 129.637 65.2825C129.544 64.8675 129.512 64.4246 129.54 63.9537C129.568 63.4788 129.657 62.9799 129.805 62.4572C129.924 62.048 130.08 61.6279 130.273 61.1967C130.363 60.9953 130.603 60.9131 130.801 61.0095L131.095 61.1523C131.293 61.2483 131.375 61.4856 131.288 61.6871C130.94 62.4872 130.739 63.2208 130.683 63.8878C130.623 64.65 130.755 65.2925 131.08 65.8153C131.284 66.1465 131.557 66.3999 131.897 66.5755C132.242 66.7511 132.627 66.8389 133.052 66.8389H134.765C134.99 66.8389 135.21 66.8209 135.427 66.785C135.643 66.7531 135.846 66.7072 136.034 66.6473C136.223 66.5875 136.393 66.5156 136.545 66.4318C136.698 66.352 136.824 66.2622 136.924 66.1625C137.028 66.0627 137.1 65.955 137.14 65.8392C137.181 65.7275 137.183 65.6118 137.146 65.492C137.098 65.3364 136.986 65.2047 136.81 65.097C136.633 64.9932 136.421 64.9094 136.172 64.8456C135.924 64.7857 135.655 64.7418 135.367 64.7139C135.224 64.702 135.084 64.6931 134.946 64.6871C134.719 64.6773 134.538 64.4897 134.546 64.2631L134.559 63.9317C134.567 63.7168 134.743 63.5466 134.958 63.5466H138.356V64.678Z" fill="#717EFF"/>
<path d="M138.356 63.5466H138.56C138.929 63.5466 139.215 63.5207 139.42 63.4688C139.628 63.4129 139.789 63.3291 139.901 63.2174C139.981 63.1416 140.039 63.0358 140.075 62.9001C140.115 62.7605 140.135 62.5769 140.135 62.3494V56.53C140.135 56.3091 140.315 56.13 140.535 56.13H140.866C141.087 56.13 141.266 56.3091 141.266 56.53V62.3494C141.266 62.4851 141.26 62.6268 141.248 62.7744C141.236 62.9181 141.21 63.0637 141.17 63.2114C141.13 63.3591 141.071 63.5047 140.995 63.6484C140.919 63.788 140.817 63.9197 140.689 64.0434C140.572 64.1512 140.446 64.245 140.31 64.3248C140.178 64.4006 140.025 64.4665 139.853 64.5223C139.68 64.5742 139.488 64.6141 139.276 64.642C139.063 64.666 138.825 64.678 138.56 64.678H138.356V63.5466Z" fill="#717EFF"/>
<path d="M143.402 67.2509C143.402 67.0299 143.582 66.8519 143.802 66.8437C144.235 66.8275 144.611 66.784 144.93 66.7132C145.343 66.6214 145.669 66.4797 145.91 66.2882C146.118 66.1206 146.271 65.9071 146.367 65.6477C146.43 65.4832 146.474 65.2931 146.497 65.0773C146.521 64.8577 146.338 64.678 146.117 64.678H145.411C145.13 64.678 144.845 64.6361 144.557 64.5523C144.268 64.4684 144.006 64.3308 143.769 64.1392C143.537 63.9477 143.346 63.6983 143.198 63.391C143.05 63.0797 142.976 62.7006 142.976 62.2536C142.976 61.9903 142.998 61.7528 143.042 61.5413C143.09 61.3258 143.148 61.1343 143.216 60.9667C143.288 60.7991 143.366 60.6534 143.451 60.5297C143.535 60.406 143.617 60.3002 143.697 60.2124C143.918 59.993 144.17 59.8234 144.455 59.7036C144.739 59.5839 145.044 59.5241 145.369 59.5241C145.653 59.5241 145.92 59.568 146.168 59.6557C146.417 59.7435 146.639 59.8752 146.836 60.0508C147.377 60.5536 147.647 61.3418 147.647 62.4153V63.1466C147.647 63.3675 147.827 63.5466 148.047 63.5466H148.472V64.678H148.047C147.827 64.678 147.65 64.8574 147.632 65.0776C147.601 65.4769 147.522 65.8306 147.395 66.1385C147.231 66.5496 146.974 66.8928 146.625 67.1681C146.273 67.4435 145.834 67.647 145.308 67.7787C144.883 67.8895 144.381 67.9551 143.802 67.9754C143.582 67.9831 143.402 67.8031 143.402 67.5822V67.2509ZM145.369 60.6554C144.972 60.6554 144.663 60.7951 144.443 61.0744C144.222 61.3538 144.112 61.7468 144.112 62.2536C144.112 62.7684 144.268 63.1256 144.581 63.3251C144.657 63.373 144.735 63.4129 144.815 63.4449C144.896 63.4728 144.974 63.4947 145.05 63.5107C145.126 63.5227 145.194 63.5326 145.254 63.5406C145.318 63.5446 145.371 63.5466 145.411 63.5466H146.117C146.338 63.5466 146.517 63.3675 146.517 63.1466V62.4153C146.517 62.124 146.495 61.8785 146.451 61.679C146.407 61.4755 146.351 61.3079 146.283 61.1762C146.214 61.0445 146.136 60.9447 146.048 60.8769C145.964 60.805 145.88 60.7532 145.796 60.7212C145.711 60.6893 145.631 60.6714 145.555 60.6674C145.479 60.6594 145.417 60.6554 145.369 60.6554Z" fill="#717EFF"/>
<path d="M156.503 62.0315C156.526 62.1852 156.459 62.3391 156.33 62.4264C156.303 62.4449 156.273 62.4651 156.241 62.4871C156.122 62.5675 155.977 62.6596 155.807 62.7633C155.649 62.859 155.562 63.0596 155.679 63.2014C155.7 63.2267 155.723 63.25 155.747 63.2713C155.848 63.3511 155.952 63.4129 156.06 63.4568C156.168 63.4967 156.271 63.5227 156.367 63.5346C156.463 63.5426 156.531 63.5466 156.571 63.5466H157.7V64.678H156.571C156.279 64.678 156.004 64.6361 155.747 64.5523C155.495 64.4645 155.266 64.3368 155.062 64.1692C154.939 64.0657 154.832 63.9511 154.74 63.8253C154.606 63.641 154.362 63.5471 154.155 63.6424C153.958 63.7329 153.754 63.8227 153.541 63.9118C153.188 64.0554 152.821 64.1851 152.44 64.3008C152.064 64.4126 151.675 64.5044 151.274 64.5762C150.877 64.644 150.48 64.678 150.083 64.678H148.472V63.5466H150.083C150.532 63.5466 150.985 63.4947 151.442 63.391C151.903 63.2832 152.346 63.1515 152.771 62.9959C153.196 62.8363 153.595 62.6647 153.968 62.4811C154.058 62.4359 154.145 62.3913 154.229 62.3475C154.525 62.1942 154.496 61.7746 154.186 61.6544C154.051 61.6023 153.916 61.5506 153.781 61.4994C153.396 61.3518 153.044 61.2221 152.723 61.1103C152.402 60.9946 152.126 60.9008 151.893 60.829C151.692 60.7658 151.55 60.7257 151.467 60.7089C151.447 60.7048 151.426 60.7032 151.405 60.7037C151.346 60.7052 151.285 60.7111 151.22 60.7212C151.148 60.7332 151.076 60.7691 151.003 60.829C150.931 60.8889 150.861 60.9826 150.793 61.1103C150.769 61.1533 150.746 61.2025 150.723 61.258C150.64 61.462 150.428 61.592 150.215 61.5363L149.887 61.4508C149.674 61.395 149.543 61.175 149.619 60.9677C149.962 60.0412 150.571 59.5779 151.448 59.5779C151.476 59.5779 151.508 59.5799 151.545 59.5839C151.585 59.5839 151.643 59.5939 151.719 59.6138C151.799 59.6298 151.901 59.6577 152.026 59.6976C152.15 59.7336 152.312 59.7854 152.513 59.8533C152.713 59.9211 152.956 60.0089 153.24 60.1167C153.525 60.2204 153.865 60.3501 154.262 60.5058L156.169 61.2082C156.306 61.2586 156.404 61.3795 156.426 61.5237L156.503 62.0315Z" fill="#717EFF"/>
<path d="M161.569 59.8632C161.674 59.831 161.781 59.8899 161.806 59.9969C161.83 60.1007 161.856 60.2304 161.884 60.386C161.916 60.5377 161.95 60.7073 161.986 60.8948C162.022 61.0784 162.054 61.266 162.082 61.4575C162.11 61.6451 162.134 61.8267 162.154 62.0022C162.174 62.1778 162.184 62.3315 162.184 62.4632C162.184 62.8463 162.12 63.1775 161.992 63.4568C161.868 63.7322 161.703 63.9616 161.499 64.1452C161.299 64.3248 161.072 64.4585 160.819 64.5463C160.567 64.6341 160.312 64.678 160.056 64.678H157.7V63.5466H160.056C160.116 63.5466 160.2 63.5386 160.308 63.5227C160.421 63.5027 160.531 63.4568 160.639 63.385C160.751 63.3132 160.848 63.2054 160.928 63.0618C161.012 62.9181 161.054 62.7186 161.054 62.4632C161.054 62.3754 161.046 62.2656 161.03 62.1339C161.018 61.9982 161 61.8546 160.976 61.7029C160.956 61.5473 160.932 61.3897 160.904 61.2301C160.876 61.0664 160.848 60.9128 160.819 60.7691C160.791 60.6255 160.765 60.4978 160.741 60.386C160.711 60.2457 160.791 60.101 160.928 60.059L161.569 59.8632ZM161.753 58.2537C161.596 58.4097 161.342 58.4089 161.187 58.2519L160.795 57.8568C160.641 57.7022 160.64 57.4535 160.791 57.297L161.175 56.9006C161.33 56.7402 161.586 56.7378 161.744 56.8952L162.146 57.2952C162.303 57.4515 162.303 57.7057 162.146 57.8621L161.753 58.2537ZM159.45 58.2417C159.293 58.3977 159.04 58.3969 158.884 58.2399L158.492 57.8448C158.339 57.6903 158.337 57.4415 158.488 57.285L158.872 56.8886C159.027 56.7282 159.283 56.7258 159.442 56.8832L159.843 57.2832C160 57.4395 160 57.6938 159.843 57.8501L159.45 58.2417Z" fill="#717EFF"/>
</g>
<defs>
<filter id="filter0_d" x="0.521484" y="0" width="163.955" height="50.5338" filterUnits="userSpaceOnUse" color-interpolation-filters="sRGB">
<feFlood flood-opacity="0" result="BackgroundImageFix"/>
<feColorMatrix in="SourceAlpha" type="matrix" values="0 0 0 0 0 0 0 0 0 0 0 0 0 0 0 0 0 0 127 0"/>
<feOffset dy="2"/>
<feGaussianBlur stdDeviation="0.75"/>
<feColorMatrix type="matrix" values="0 0 0 0 0.227451 0 0 0 0 0.211765 0 0 0 0 0.588235 0 0 0 0.2 0"/>
<feBlend mode="normal" in2="BackgroundImageFix" result="effect1_dropShadow"/>
<feBlend mode="normal" in="SourceGraphic" in2="effect1_dropShadow" result="shape"/>
</filter>
<filter id="filter1_d" x="46.8967" y="55.9299" width="116.567" height="14.2701" filterUnits="userSpaceOnUse" color-interpolation-filters="sRGB">
<feFlood flood-opacity="0" result="BackgroundImageFix"/>
<feColorMatrix in="SourceAlpha" type="matrix" values="0 0 0 0 0 0 0 0 0 0 0 0 0 0 0 0 0 0 127 0"/>
<feOffset dy="1"/>
<feGaussianBlur stdDeviation="0.6"/>
<feColorMatrix type="matrix" values="0 0 0 0 0 0 0 0 0 0 0 0 0 0 0 0 0 0 0.24 0"/>
<feBlend mode="normal" in2="BackgroundImageFix" result="effect1_dropShadow"/>
<feBlend mode="normal" in="SourceGraphic" in2="effect1_dropShadow" result="shape"/>
</filter>
<linearGradient id="paint0_linear" x1="141.724" y1="16.9248" x2="141.724" y2="39.0169" gradientUnits="userSpaceOnUse">
<stop stop-color="#1214B1"/>
<stop offset="1" stop-color="#5766E7"/>
</linearGradient>
<linearGradient id="paint1_linear" x1="137.131" y1="8.85693" x2="137.131" y2="14.7844" gradientUnits="userSpaceOnUse">
<stop stop-color="#1214B1"/>
<stop offset="1" stop-color="#5766E7"/>
</linearGradient>
<linearGradient id="paint2_linear" x1="123.421" y1="16.9243" x2="123.421" y2="46.9428" gradientUnits="userSpaceOnUse">
<stop stop-color="#1214B1"/>
<stop offset="1" stop-color="#5766E7"/>
</linearGradient>
<linearGradient id="paint3_linear" x1="156.823" y1="8.99902" x2="156.823" y2="39.0167" gradientUnits="userSpaceOnUse">
<stop stop-color="#1214B1"/>
<stop offset="1" stop-color="#5766E7"/>
</linearGradient>
<linearGradient id="paint4_linear" x1="156.314" y1="0" x2="156.314" y2="8.85713" gradientUnits="userSpaceOnUse">
<stop stop-color="#1214B1"/>
<stop offset="1" stop-color="#5766E7"/>
</linearGradient>
<linearGradient id="paint5_linear" x1="4.9652" y1="8.99902" x2="4.9652" y2="39.0167" gradientUnits="userSpaceOnUse">
<stop stop-color="#1214B1"/>
<stop offset="1" stop-color="#5766E7"/>
</linearGradient>
<linearGradient id="paint6_linear" x1="26.9435" y1="16.9014" x2="26.9435" y2="38.9942" gradientUnits="userSpaceOnUse">
<stop stop-color="#1214B1"/>
<stop offset="1" stop-color="#5766E7"/>
</linearGradient>
<linearGradient id="paint7_linear" x1="38.5623" y1="41.8672" x2="38.5623" y2="47.0338" gradientUnits="userSpaceOnUse">
<stop stop-color="#1214B1"/>
<stop offset="1" stop-color="#5766E7"/>
</linearGradient>
<linearGradient id="paint8_linear" x1="33.3855" y1="41.8496" x2="33.3855" y2="47.0163" gradientUnits="userSpaceOnUse">
<stop stop-color="#1214B1"/>
<stop offset="1" stop-color="#5766E7"/>
</linearGradient>
<linearGradient id="paint9_linear" x1="60.5577" y1="16.9014" x2="60.5577" y2="39.0169" gradientUnits="userSpaceOnUse">
<stop stop-color="#1214B1"/>
<stop offset="1" stop-color="#5766E7"/>
</linearGradient>
<linearGradient id="paint10_linear" x1="71.4889" y1="8.85693" x2="71.4889" y2="14.7844" gradientUnits="userSpaceOnUse">
<stop stop-color="#1214B1"/>
<stop offset="1" stop-color="#5766E7"/>
</linearGradient>
<linearGradient id="paint11_linear" x1="87.628" y1="8.99902" x2="87.628" y2="39.0167" gradientUnits="userSpaceOnUse">
<stop stop-color="#1214B1"/>
<stop offset="1" stop-color="#5766E7"/>
</linearGradient>
<linearGradient id="paint12_linear" x1="96.9712" y1="9.07861" x2="96.9712" y2="39.0168" gradientUnits="userSpaceOnUse">
<stop stop-color="#1214B1"/>
<stop offset="1" stop-color="#5766E7"/>
</linearGradient>
</defs>
</svg>
