<svg width="358" height="263" viewBox="0 0 358 263" fill="none" xmlns="http://www.w3.org/2000/svg">
<g filter="url(#filter0_d)">
<path d="M174.509 134.579L123.941 33.4437C121.928 29.405 118.828 26.0075 114.991 23.6328C111.154 21.258 106.731 20 102.218 20C97.7053 20 93.2816 21.258 89.4444 23.6328C85.6071 26.0075 82.5081 29.405 80.4948 33.4437L30.2218 134.959C28.3052 138.815 27.9966 143.275 29.3632 147.359C30.7299 151.443 33.6606 154.818 37.5124 156.745C39.7578 157.886 42.2417 158.478 44.7603 158.473C47.7862 158.462 50.7496 157.613 53.3231 156.022C55.8965 154.43 57.9793 152.157 59.3405 149.455L102.239 62.773L145.221 149.16C147.244 152.848 150.618 155.61 154.634 156.864C158.65 158.119 162.995 157.768 166.758 155.887C170.521 154.005 173.409 150.739 174.815 146.774C176.22 142.809 176.035 138.453 174.298 134.621L174.509 134.579Z" fill="#95C11F"/>
</g>
<g filter="url(#filter1_d)">
<path d="M104.511 96.4858H100.339C95.4521 96.4858 91.4902 100.448 91.4902 105.335V169.641C91.4902 174.528 95.4521 178.49 100.339 178.49H104.511C109.399 178.49 113.361 174.528 113.361 169.641V105.335C113.361 100.448 109.399 96.4858 104.511 96.4858Z" fill="#95C11F"/>
</g>
<g filter="url(#filter2_d)">
<path d="M257.732 178.488C297.47 178.488 329.749 144.523 329.749 102.636C329.831 85.9653 324.541 69.7114 314.662 56.2824C312.846 53.8502 310.307 52.0537 307.41 51.1492C304.512 50.2447 301.402 50.2784 298.525 51.2453C295.647 52.2123 293.149 54.0632 291.385 56.5341C289.622 59.005 288.684 61.9697 288.704 65.0053C288.745 68.1442 289.761 71.1927 291.612 73.7282C297.66 82.1335 300.891 92.2387 300.841 102.594C300.841 128.384 281.499 149.369 257.732 149.369C233.965 149.369 214.664 128.299 214.664 102.594C214.606 92.4392 217.697 82.5161 223.514 74.1918C225.287 71.7334 226.272 68.7943 226.337 65.7638C226.361 62.7209 225.421 59.7485 223.653 57.2725C221.884 54.7965 219.376 52.9439 216.49 51.9802C213.604 51.0165 210.486 50.9912 207.585 51.9078C204.683 52.8245 202.146 54.6361 200.337 57.083C190.773 70.3894 185.656 86.376 185.714 102.763C185.714 144.523 218.036 178.488 257.732 178.488Z" fill="#113E81"/>
</g>
<g filter="url(#filter3_d)">
<path d="M255.412 126.573H259.583C264.471 126.573 268.433 122.611 268.433 117.723V39.1748C268.433 34.2874 264.471 30.3254 259.583 30.3254H255.412C250.524 30.3254 246.562 34.2874 246.562 39.1748V117.723C246.562 122.611 250.524 126.573 255.412 126.573Z" fill="#113E81"/>
</g>
<g filter="url(#filter4_d)">
<path d="M289.543 203.73C288.588 202.747 287.44 201.972 286.172 201.454C283.323 200.442 280.213 200.442 277.365 201.454C276.09 201.941 274.939 202.704 273.993 203.688C273.047 204.655 272.327 205.821 271.886 207.101C271.366 208.532 271.109 210.045 271.127 211.568C271.141 213.001 271.383 214.424 271.844 215.782C272.334 217.069 273.08 218.244 274.035 219.237C274.984 220.197 276.116 220.957 277.365 221.471C280.213 222.483 283.323 222.483 286.172 221.471C287.446 220.983 288.597 220.221 289.543 219.237C290.489 218.245 291.22 217.069 291.692 215.782C292.704 212.919 292.704 209.795 291.692 206.932C291.223 205.718 290.489 204.623 289.543 203.73ZM285.624 216.625C285.173 217.221 284.585 217.7 283.911 218.023C283.236 218.346 282.494 218.502 281.747 218.479C280.755 218.492 279.784 218.197 278.966 217.636C278.132 217.038 277.5 216.2 277.154 215.234C276.711 214.063 276.497 212.819 276.521 211.568C276.497 210.303 276.712 209.045 277.154 207.859C277.516 206.89 278.162 206.053 279.008 205.457C280.045 204.791 281.289 204.526 282.507 204.712C283.725 204.898 284.834 205.523 285.624 206.469C286.558 207.998 287.053 209.755 287.053 211.547C287.053 213.339 286.558 215.096 285.624 216.625Z" fill="#95C11F"/>
<path d="M333.116 195.64C333.116 194.034 331.814 192.732 330.208 192.732C328.602 192.732 327.301 194.034 327.301 195.64V219.575C327.301 221.181 328.602 222.483 330.208 222.483C331.814 222.483 333.116 221.181 333.116 219.575V195.64Z" fill="#95C11F"/>
<path d="M321.021 200.738C320.342 200.885 319.734 201.264 319.303 201.81C318.873 202.356 318.646 203.035 318.661 203.73V213.507C318.661 214.334 318.333 215.127 317.748 215.712C317.163 216.296 316.37 216.625 315.543 216.625C314.639 216.582 313.766 216.287 313.021 215.773C312.276 215.259 311.69 214.547 311.329 213.717C311.074 213.118 310.945 212.472 310.95 211.821V211.063C310.9 209.461 310.498 207.891 309.773 206.463C309.049 205.034 308.018 203.783 306.755 202.798C305.492 201.812 304.028 201.117 302.466 200.761C300.904 200.405 299.283 200.397 297.718 200.738C297.183 200.861 296.704 201.161 296.36 201.589C296.016 202.017 295.827 202.549 295.822 203.098V203.477C295.819 203.841 295.898 204.201 296.054 204.529C296.21 204.858 296.439 205.147 296.723 205.374C297.007 205.601 297.339 205.761 297.694 205.841C298.049 205.922 298.417 205.92 298.771 205.837C299.589 205.648 300.44 205.648 301.258 205.837C302.648 206.134 303.879 206.937 304.711 208.09C305.542 209.243 305.916 210.664 305.758 212.077C305.6 213.49 304.923 214.795 303.858 215.736C302.793 216.678 301.415 217.19 299.994 217.173C299.601 217.214 299.206 217.214 298.814 217.173C298.458 217.099 298.091 217.104 297.737 217.187C297.383 217.27 297.053 217.43 296.767 217.655C296.482 217.88 296.25 218.164 296.086 218.489C295.923 218.813 295.833 219.17 295.822 219.533V219.912C295.834 220.459 296.026 220.987 296.369 221.414C296.712 221.84 297.186 222.142 297.718 222.272C298.465 222.441 299.228 222.526 299.994 222.525C301.818 222.526 303.613 222.072 305.217 221.204C306.822 220.335 308.184 219.08 309.18 217.552C309.392 218.918 310.087 220.163 311.139 221.06C312.19 221.957 313.529 222.446 314.911 222.44H317.06C319.083 222.44 321.023 221.637 322.453 220.206C323.884 218.776 324.688 216.836 324.688 214.813V203.604C324.697 203.152 324.6 202.705 324.407 202.297C324.213 201.889 323.927 201.532 323.571 201.254C323.215 200.976 322.799 200.785 322.357 200.695C321.914 200.606 321.457 200.62 321.021 200.738Z" fill="#95C11F"/>
<path d="M321.571 230.576C322.99 230.576 324.141 229.425 324.141 228.006C324.141 226.586 322.99 225.435 321.571 225.435C320.151 225.435 319 226.586 319 228.006C319 229.425 320.151 230.576 321.571 230.576Z" fill="#95C11F"/>
<path d="M316.471 230.53C317.89 230.53 319.042 229.379 319.042 227.96C319.042 226.54 317.89 225.389 316.471 225.389C315.051 225.389 313.9 226.54 313.9 227.96C313.9 229.379 315.051 230.53 316.471 230.53Z" fill="#95C11F"/>
<path d="M214.789 192.732C214.018 192.732 213.279 193.038 212.734 193.584C212.188 194.129 211.882 194.868 211.882 195.64V219.491C211.882 220.262 212.188 221.001 212.734 221.547C213.279 222.092 214.018 222.398 214.789 222.398C215.56 222.398 216.3 222.092 216.845 221.547C217.391 221.001 217.697 220.262 217.697 219.491V195.597C217.686 194.834 217.375 194.105 216.831 193.569C216.287 193.032 215.553 192.732 214.789 192.732Z" fill="#95C11F"/>
<path d="M205.349 200.738C204.677 200.894 204.08 201.276 203.657 201.821C203.235 202.367 203.014 203.041 203.032 203.73V223.073C203.032 223.475 202.872 223.861 202.587 224.145C202.303 224.43 201.917 224.59 201.515 224.59H199.323C198.552 224.59 197.813 224.896 197.267 225.441C196.722 225.986 196.416 226.726 196.416 227.497C196.416 228.268 196.722 229.008 197.267 229.553C197.813 230.099 198.552 230.405 199.323 230.405H201.81C203.676 230.405 205.466 229.663 206.786 228.344C208.106 227.024 208.847 225.234 208.847 223.367V203.604C208.85 203.17 208.756 202.742 208.571 202.35C208.387 201.957 208.118 201.611 207.782 201.336C207.447 201.062 207.055 200.865 206.634 200.762C206.213 200.658 205.774 200.65 205.349 200.738Z" fill="#95C11F"/>
<path d="M258.32 200.737C257.64 200.884 257.032 201.263 256.602 201.809C256.171 202.355 255.944 203.034 255.96 203.729V213.506C255.96 214.333 255.631 215.126 255.047 215.711C254.462 216.296 253.668 216.624 252.841 216.624C251.567 216.624 250.346 216.118 249.445 215.217C248.544 214.316 248.037 213.094 248.037 211.82V203.392C248.037 202.621 247.731 201.882 247.186 201.336C246.641 200.791 245.901 200.485 245.13 200.485C244.359 200.485 243.619 200.791 243.074 201.336C242.529 201.882 242.222 202.621 242.222 203.392V222.734C242.211 223.141 242.042 223.526 241.751 223.81C241.46 224.093 241.069 224.252 240.663 224.251H238.472C237.7 224.251 236.961 224.558 236.416 225.103C235.871 225.648 235.564 226.388 235.564 227.159C235.564 227.93 235.871 228.67 236.416 229.215C236.961 229.76 237.7 230.067 238.472 230.067H241C242.867 230.067 244.656 229.325 245.976 228.006C247.296 226.686 248.037 224.896 248.037 223.029V220.543C249.116 221.541 250.53 222.098 251.999 222.102H254.148C256.171 222.102 258.111 221.299 259.541 219.868C260.971 218.438 261.775 216.498 261.775 214.475V203.266C261.73 202.866 261.603 202.479 261.401 202.131C261.199 201.783 260.928 201.481 260.603 201.243C260.278 201.005 259.907 200.838 259.514 200.751C259.121 200.664 258.715 200.659 258.32 200.737Z" fill="#95C11F"/>
<path d="M224.776 200.615C223.955 200.613 223.136 200.698 222.332 200.868C221.801 200.992 221.328 201.294 220.991 201.722C220.654 202.151 220.474 202.682 220.478 203.228V203.607C220.477 203.966 220.555 204.321 220.709 204.646C220.862 204.971 221.087 205.257 221.366 205.484C221.645 205.71 221.972 205.871 222.321 205.955C222.671 206.038 223.034 206.042 223.386 205.967C224.204 205.778 225.054 205.778 225.872 205.967C227.358 206.291 228.655 207.192 229.477 208.472C230.299 209.753 230.579 211.307 230.255 212.793C229.93 214.28 229.029 215.577 227.749 216.398C226.469 217.22 224.914 217.5 223.428 217.176C223.074 217.101 222.709 217.106 222.357 217.189C222.006 217.273 221.677 217.433 221.395 217.659C221.113 217.884 220.884 218.17 220.726 218.494C220.567 218.819 220.483 219.174 220.478 219.536V219.915C220.481 220.459 220.665 220.986 221 221.413C221.336 221.84 221.805 222.144 222.332 222.275C223.093 222.447 223.87 222.532 224.65 222.528C227.556 222.528 230.343 221.373 232.398 219.319C234.452 217.264 235.606 214.477 235.606 211.571C235.606 208.665 234.452 205.879 232.398 203.824C230.343 201.769 227.556 200.615 224.65 200.615H224.776Z" fill="#95C11F"/>
<path d="M206.066 198.632C207.695 198.632 209.015 197.311 209.015 195.682C209.015 194.053 207.695 192.732 206.066 192.732C204.437 192.732 203.116 194.053 203.116 195.682C203.116 197.311 204.437 198.632 206.066 198.632Z" fill="#95C11F"/>
<path d="M258.783 230.576C260.203 230.576 261.354 229.425 261.354 228.006C261.354 226.586 260.203 225.435 258.783 225.435C257.364 225.435 256.213 226.586 256.213 228.006C256.213 229.425 257.364 230.576 258.783 230.576Z" fill="#95C11F"/>
<path d="M256.214 235C257.633 235 258.784 233.849 258.784 232.429C258.784 231.01 257.633 229.859 256.214 229.859C254.794 229.859 253.643 231.01 253.643 232.429C253.643 233.849 254.794 235 256.214 235Z" fill="#95C11F"/>
<path d="M253.64 230.576C255.059 230.576 256.21 229.425 256.21 228.006C256.21 226.586 255.059 225.435 253.64 225.435C252.22 225.435 251.069 226.586 251.069 228.006C251.069 229.425 252.22 230.576 253.64 230.576Z" fill="#95C11F"/>
</g>
<g filter="url(#filter5_d)">
<path d="M63.1228 202.471C62.4469 202.619 61.8448 203 61.4211 203.547C60.9975 204.093 60.7795 204.772 60.8054 205.463V215.24C60.8054 216.067 60.4766 216.86 59.8918 217.445C59.307 218.029 58.5141 218.358 57.6871 218.358H54.9901V197.288C54.904 196.572 54.5585 195.912 54.0189 195.433C53.4792 194.955 52.7824 194.69 52.061 194.69C51.3397 194.69 50.6434 194.955 50.1038 195.433C49.5641 195.912 49.2186 196.572 49.1326 197.288V221.223C49.1326 221.995 49.4386 222.734 49.9839 223.279C50.5292 223.825 51.2688 224.131 52.04 224.131H58.951C59.9561 224.137 60.9528 223.943 61.883 223.563C62.8133 223.182 63.659 222.621 64.3717 221.912C65.0845 221.203 65.6499 220.361 66.0358 219.432C66.4218 218.504 66.6207 217.509 66.6207 216.504V205.295C66.6098 204.867 66.5059 204.447 66.3167 204.064C66.1274 203.68 65.8572 203.343 65.5245 203.074C65.1918 202.806 64.8049 202.613 64.3902 202.509C63.9756 202.404 63.5428 202.392 63.1228 202.471Z" fill="#113E81"/>
<path d="M34.9312 202.43C33.5153 202.413 32.1104 202.679 30.799 203.213C29.4876 203.747 28.2961 204.538 27.2949 205.539C26.2937 206.54 25.5028 207.732 24.9688 209.043C24.4348 210.355 24.1684 211.759 24.1853 213.175C24.2124 214.551 24.5131 215.908 25.0701 217.167C25.6271 218.425 26.4294 219.56 27.4297 220.506C28.4299 221.451 29.6083 222.188 30.8962 222.673C32.1842 223.158 33.5558 223.382 34.9312 223.331C36.8836 223.151 38.763 222.5 40.4091 221.435V222.783C40.4239 223.382 40.2984 223.976 40.0423 224.518C39.7862 225.059 39.4066 225.533 38.9343 225.902C37.9204 226.721 36.656 227.167 35.3525 227.166C34.5078 227.16 33.6735 226.978 32.9039 226.629C32.1344 226.281 31.4471 225.774 30.8859 225.143C30.6787 224.869 30.411 224.647 30.104 224.494C29.7971 224.34 29.459 224.26 29.1159 224.258C28.6042 224.197 28.086 224.297 27.6334 224.543C27.1807 224.789 26.8159 225.17 26.5891 225.633C26.3624 226.096 26.2852 226.617 26.3679 227.126C26.4507 227.635 26.6893 228.105 27.0511 228.472C28.0831 229.697 29.3747 230.676 30.8324 231.34C32.2902 232.003 33.8777 232.333 35.479 232.307H36.2794C38.9538 232.043 41.4309 230.782 43.2187 228.776C45.0065 226.769 45.9744 224.164 45.9296 221.477V212.796C45.7987 209.979 44.5784 207.323 42.5263 205.389C40.4742 203.455 37.7509 202.394 34.9312 202.43ZM34.9312 218.401C33.9192 218.409 32.9274 218.116 32.0824 217.559C31.2375 217.002 30.5775 216.206 30.1863 215.272C29.7952 214.339 29.6905 213.31 29.8859 212.317C30.0813 211.324 30.5679 210.412 31.2836 209.696C31.9992 208.981 32.9114 208.494 33.9044 208.299C34.8974 208.103 35.9263 208.208 36.8597 208.599C37.7931 208.99 38.5891 209.65 39.1462 210.495C39.7033 211.34 39.9961 212.332 39.9878 213.344C39.9768 214.682 39.4404 215.961 38.4945 216.907C37.5485 217.853 36.2689 218.39 34.9312 218.401Z" fill="#113E81"/>
<path d="M64.0538 199.986C65.4735 199.986 66.6243 198.836 66.6243 197.416C66.6243 195.996 65.4735 194.845 64.0538 194.845C62.6342 194.845 61.4829 195.996 61.4829 197.416C61.4829 198.836 62.6342 199.986 64.0538 199.986Z" fill="#113E81"/>
<path d="M58.9534 199.986C60.3731 199.986 61.5239 198.836 61.5239 197.416C61.5239 195.996 60.3731 194.845 58.9534 194.845C57.5338 194.845 56.383 195.996 56.383 197.416C56.383 198.836 57.5338 199.986 58.9534 199.986Z" fill="#113E81"/>
<path d="M175.6 194.466C174.829 194.466 174.089 194.772 173.544 195.318C172.998 195.863 172.692 196.602 172.692 197.374V221.225C172.692 221.996 172.998 222.735 173.544 223.281C174.089 223.826 174.829 224.132 175.6 224.132C176.371 224.132 177.111 223.826 177.656 223.281C178.201 222.735 178.507 221.996 178.507 221.225V197.331C178.496 196.568 178.185 195.839 177.641 195.303C177.097 194.766 176.364 194.466 175.6 194.466Z" fill="#113E81"/>
<path d="M166.539 202.474C165.859 202.621 165.252 203 164.821 203.546C164.39 204.092 164.163 204.771 164.179 205.466V224.808C164.179 225.21 164.019 225.596 163.735 225.881C163.45 226.165 163.064 226.325 162.662 226.325H160.471C159.7 226.325 158.96 226.631 158.415 227.177C157.869 227.722 157.563 228.461 157.563 229.233C157.563 230.004 157.869 230.743 158.415 231.289C158.96 231.834 159.7 232.14 160.471 232.14H162.957C164.827 232.14 166.622 231.4 167.948 230.082C169.275 228.763 170.025 226.973 170.036 225.103V205.339C170.031 204.908 169.932 204.484 169.746 204.095C169.559 203.707 169.289 203.364 168.956 203.09C168.622 202.817 168.234 202.621 167.816 202.514C167.398 202.407 166.962 202.394 166.539 202.474Z" fill="#113E81"/>
<path d="M126.924 202.473C126.248 202.621 125.646 203.002 125.222 203.548C124.798 204.095 124.58 204.774 124.606 205.465V215.242C124.595 216.072 124.257 216.866 123.665 217.449C123.074 218.033 122.277 218.36 121.446 218.36C120.172 218.36 118.949 217.854 118.049 216.953C117.148 216.052 116.642 214.83 116.642 213.556V213.261C116.634 209.967 115.777 206.731 114.155 203.864C113.875 203.412 113.484 203.039 113.02 202.781C112.555 202.523 112.032 202.388 111.5 202.389C110.961 202.385 110.429 202.524 109.96 202.79C109.491 203.057 109.1 203.442 108.827 203.907C108.554 204.373 108.408 204.902 108.404 205.442C108.399 205.981 108.538 206.513 108.804 206.982C110.178 209.35 110.726 212.107 110.363 214.82C110.156 218.173 108.626 221.306 106.109 223.531C103.592 225.756 100.294 226.889 96.9411 226.682C93.5883 226.476 90.4549 224.946 88.2302 222.429C86.0056 219.911 84.8722 216.614 85.079 213.261C85.0602 211.04 85.6423 208.856 86.7642 206.94C87.02 206.472 87.1501 205.945 87.1407 205.411C87.1314 204.878 86.9832 204.356 86.7112 203.897C86.4392 203.438 86.0523 203.057 85.5888 202.793C85.1253 202.529 84.6013 202.389 84.0677 202.389C83.5338 202.375 83.0057 202.505 82.5389 202.764C82.072 203.024 81.6835 203.403 81.4129 203.864C80.1091 206.097 79.2791 208.575 78.9746 211.143C78.6701 213.711 78.8975 216.314 79.6428 218.79C80.3881 221.266 81.635 223.562 83.3064 225.535C84.9777 227.509 87.0375 229.117 89.3573 230.259C91.6771 231.402 94.2074 232.054 96.7904 232.176C99.3734 232.298 101.954 231.887 104.371 230.969C106.788 230.05 108.991 228.644 110.841 226.837C112.691 225.03 114.149 222.862 115.125 220.467C115.562 221.55 116.313 222.479 117.282 223.132C118.25 223.785 119.392 224.134 120.56 224.133H122.667C124.694 224.133 126.639 223.331 128.076 221.902C129.513 220.472 130.326 218.532 130.337 216.506V205.297C130.324 204.878 130.222 204.466 130.038 204.09C129.854 203.713 129.592 203.38 129.269 203.113C128.946 202.846 128.57 202.651 128.165 202.54C127.761 202.43 127.337 202.407 126.924 202.473Z" fill="#113E81"/>
<path d="M144.627 202.43C143.211 202.413 141.806 202.68 140.495 203.214C139.184 203.748 137.992 204.539 136.991 205.54C135.99 206.541 135.199 207.732 134.665 209.044C134.131 210.355 133.864 211.76 133.881 213.176C133.908 214.552 134.209 215.909 134.766 217.167C135.323 218.426 136.125 219.561 137.125 220.506C138.125 221.452 139.304 222.188 140.592 222.673C141.88 223.158 143.252 223.382 144.627 223.332C146.594 223.158 148.489 222.507 150.147 221.435V222.784C150.154 223.386 150.02 223.981 149.757 224.522C149.494 225.063 149.108 225.536 148.63 225.902C147.62 226.728 146.353 227.175 145.049 227.166C144.21 227.16 143.382 226.977 142.62 226.629C141.857 226.28 141.177 225.774 140.624 225.144C140.41 224.877 140.142 224.659 139.836 224.507C139.531 224.354 139.196 224.269 138.854 224.259C138.339 224.187 137.814 224.279 137.354 224.521C136.893 224.763 136.52 225.144 136.288 225.609C136.055 226.075 135.974 226.601 136.057 227.115C136.139 227.629 136.381 228.103 136.747 228.473C137.779 229.697 139.071 230.677 140.528 231.34C141.986 232.004 143.574 232.334 145.175 232.307H146.018C148.692 232.043 151.169 230.783 152.957 228.776C154.745 226.77 155.713 224.164 155.668 221.477V212.797C155.537 209.972 154.31 207.31 152.249 205.375C150.188 203.44 147.454 202.383 144.627 202.43ZM144.627 218.401C143.617 218.401 142.629 218.101 141.79 217.539C140.95 216.977 140.297 216.178 139.912 215.244C139.528 214.31 139.429 213.282 139.629 212.292C139.829 211.302 140.319 210.393 141.037 209.682C141.754 208.971 142.667 208.488 143.659 208.296C144.65 208.104 145.677 208.211 146.608 208.604C147.539 208.996 148.332 209.656 148.887 210.5C149.442 211.344 149.734 212.334 149.726 213.344C149.715 214.689 149.173 215.976 148.218 216.923C147.263 217.87 145.972 218.401 144.627 218.401Z" fill="#113E81"/>
<path d="M97.8899 211.197C99.519 211.197 100.84 209.877 100.84 208.248C100.84 206.618 99.519 205.298 97.8899 205.298C96.2607 205.298 94.9403 206.618 94.9403 208.248C94.9403 209.877 96.2607 211.197 97.8899 211.197Z" fill="#113E81"/>
<path d="M126.885 232.31C128.304 232.31 129.455 231.159 129.455 229.74C129.455 228.32 128.304 227.169 126.885 227.169C125.465 227.169 124.314 228.32 124.314 229.74C124.314 231.159 125.465 232.31 126.885 232.31Z" fill="#113E81"/>
<path d="M121.741 232.31C123.161 232.31 124.311 231.159 124.311 229.74C124.311 228.32 123.161 227.169 121.741 227.169C120.321 227.169 119.171 228.32 119.171 229.74C119.171 231.159 120.321 232.31 121.741 232.31Z" fill="#113E81"/>
<path d="M178.047 185.271V185.988C178.047 186.2 177.962 186.404 177.812 186.554C177.662 186.704 177.458 186.788 177.246 186.788H170.672C169.901 186.788 169.161 187.095 168.616 187.64C168.071 188.185 167.764 188.925 167.764 189.696V191.129C167.764 191.52 167.92 191.895 168.196 192.172C168.473 192.448 168.848 192.604 169.239 192.604C169.623 192.593 169.988 192.432 170.255 192.157C170.523 191.882 170.672 191.513 170.672 191.129V190.497C170.672 190.391 170.693 190.287 170.733 190.19C170.773 190.093 170.832 190.005 170.907 189.931C170.981 189.856 171.069 189.797 171.167 189.757C171.264 189.717 171.368 189.696 171.473 189.696H178.005C178.39 189.702 178.772 189.63 179.13 189.487C179.488 189.343 179.813 189.13 180.088 188.859C180.362 188.589 180.58 188.266 180.729 187.911C180.878 187.555 180.954 187.174 180.954 186.788V185.271C180.954 184.88 180.799 184.505 180.522 184.228C180.245 183.952 179.87 183.796 179.479 183.796C179.096 183.807 178.731 183.968 178.463 184.243C178.196 184.518 178.047 184.887 178.047 185.271Z" fill="#113E81"/>
</g>
<defs>
<filter id="filter0_d" x="4.52246" y="0" width="195.227" height="186.473" filterUnits="userSpaceOnUse" color-interpolation-filters="sRGB">
<feFlood flood-opacity="0" result="BackgroundImageFix"/>
<feColorMatrix in="SourceAlpha" type="matrix" values="0 0 0 0 0 0 0 0 0 0 0 0 0 0 0 0 0 0 127 0"/>
<feOffset dy="4"/>
<feGaussianBlur stdDeviation="12"/>
<feColorMatrix type="matrix" values="0 0 0 0 0 0 0 0 0 0 0 0 0 0 0 0 0 0 0.2 0"/>
<feBlend mode="normal" in2="BackgroundImageFix" result="effect1_dropShadow"/>
<feBlend mode="normal" in="SourceGraphic" in2="effect1_dropShadow" result="shape"/>
</filter>
<filter id="filter1_d" x="67.4902" y="76.4858" width="69.8708" height="130.004" filterUnits="userSpaceOnUse" color-interpolation-filters="sRGB">
<feFlood flood-opacity="0" result="BackgroundImageFix"/>
<feColorMatrix in="SourceAlpha" type="matrix" values="0 0 0 0 0 0 0 0 0 0 0 0 0 0 0 0 0 0 127 0"/>
<feOffset dy="4"/>
<feGaussianBlur stdDeviation="12"/>
<feColorMatrix type="matrix" values="0 0 0 0 0 0 0 0 0 0 0 0 0 0 0 0 0 0 0.2 0"/>
<feBlend mode="normal" in2="BackgroundImageFix" result="effect1_dropShadow"/>
<feBlend mode="normal" in="SourceGraphic" in2="effect1_dropShadow" result="shape"/>
</filter>
<filter id="filter2_d" x="161.714" y="30.4946" width="192.036" height="175.993" filterUnits="userSpaceOnUse" color-interpolation-filters="sRGB">
<feFlood flood-opacity="0" result="BackgroundImageFix"/>
<feColorMatrix in="SourceAlpha" type="matrix" values="0 0 0 0 0 0 0 0 0 0 0 0 0 0 0 0 0 0 127 0"/>
<feOffset dy="4"/>
<feGaussianBlur stdDeviation="12"/>
<feColorMatrix type="matrix" values="0 0 0 0 0 0 0 0 0 0 0 0 0 0 0 0 0 0 0.2 0"/>
<feBlend mode="normal" in2="BackgroundImageFix" result="effect1_dropShadow"/>
<feBlend mode="normal" in="SourceGraphic" in2="effect1_dropShadow" result="shape"/>
</filter>
<filter id="filter3_d" x="222.562" y="10.3252" width="69.8703" height="144.247" filterUnits="userSpaceOnUse" color-interpolation-filters="sRGB">
<feFlood flood-opacity="0" result="BackgroundImageFix"/>
<feColorMatrix in="SourceAlpha" type="matrix" values="0 0 0 0 0 0 0 0 0 0 0 0 0 0 0 0 0 0 127 0"/>
<feOffset dy="4"/>
<feGaussianBlur stdDeviation="12"/>
<feColorMatrix type="matrix" values="0 0 0 0 0 0 0 0 0 0 0 0 0 0 0 0 0 0 0.2 0"/>
<feBlend mode="normal" in2="BackgroundImageFix" result="effect1_dropShadow"/>
<feBlend mode="normal" in="SourceGraphic" in2="effect1_dropShadow" result="shape"/>
</filter>
<filter id="filter4_d" x="172.416" y="172.732" width="184.7" height="90.2677" filterUnits="userSpaceOnUse" color-interpolation-filters="sRGB">
<feFlood flood-opacity="0" result="BackgroundImageFix"/>
<feColorMatrix in="SourceAlpha" type="matrix" values="0 0 0 0 0 0 0 0 0 0 0 0 0 0 0 0 0 0 127 0"/>
<feOffset dy="4"/>
<feGaussianBlur stdDeviation="12"/>
<feColorMatrix type="matrix" values="0 0 0 0 0 0 0 0 0 0 0 0 0 0 0 0 0 0 0.2 0"/>
<feBlend mode="normal" in2="BackgroundImageFix" result="effect1_dropShadow"/>
<feBlend mode="normal" in="SourceGraphic" in2="effect1_dropShadow" result="shape"/>
</filter>
<filter id="filter5_d" x="0.18457" y="163.796" width="204.77" height="96.5139" filterUnits="userSpaceOnUse" color-interpolation-filters="sRGB">
<feFlood flood-opacity="0" result="BackgroundImageFix"/>
<feColorMatrix in="SourceAlpha" type="matrix" values="0 0 0 0 0 0 0 0 0 0 0 0 0 0 0 0 0 0 127 0"/>
<feOffset dy="4"/>
<feGaussianBlur stdDeviation="12"/>
<feColorMatrix type="matrix" values="0 0 0 0 0 0 0 0 0 0 0 0 0 0 0 0 0 0 0.2 0"/>
<feBlend mode="normal" in2="BackgroundImageFix" result="effect1_dropShadow"/>
<feBlend mode="normal" in="SourceGraphic" in2="effect1_dropShadow" result="shape"/>
</filter>
</defs>
</svg>
